<?xml version="1.0" encoding="utf-8"?>
<!-- Generator: Adobe Illustrator 22.1.0, SVG Export Plug-In . SVG Version: 6.00 Build 0)  -->
<svg version="1.1" id="Layer_1" xmlns="http://www.w3.org/2000/svg" xmlns:xlink="http://www.w3.org/1999/xlink" x="0px" y="0px"
	 viewBox="0 0 282.8 348.2" style="enable-background:new 0 0 282.8 348.2;" xml:space="preserve">
<style type="text/css">
	.st0{fill:#B5BFE5;}
	.st1{fill:#4359AB;}
	.st2{fill:#5A6FBD;}
	.st3{fill:#FFFFFF;}
	.st4{fill:#FAFDFF;}
	.st5{fill:#173D7A;}
	.st6{fill:#233A8E;}
	.st7{opacity:0.4;fill:#D4ECFF;}
	.st8{fill:#D4ECFF;}
	.st9{enable-background:new    ;}
	.st10{clip-path:url(#SVGID_2_);enable-background:new    ;}
	.st11{clip-path:url(#SVGID_4_);enable-background:new    ;}
	.st12{clip-path:url(#SVGID_6_);enable-background:new    ;}
	.st13{clip-path:url(#SVGID_8_);enable-background:new    ;}
	.st14{clip-path:url(#SVGID_10_);enable-background:new    ;}
	.st15{clip-path:url(#SVGID_12_);enable-background:new    ;}
	.st16{clip-path:url(#SVGID_14_);enable-background:new    ;}
	.st17{clip-path:url(#SVGID_16_);enable-background:new    ;}
	.st18{clip-path:url(#SVGID_18_);enable-background:new    ;}
	.st19{clip-path:url(#SVGID_20_);enable-background:new    ;}
	.st20{clip-path:url(#SVGID_22_);enable-background:new    ;}
	.st21{clip-path:url(#SVGID_24_);enable-background:new    ;}
	.st22{clip-path:url(#SVGID_26_);enable-background:new    ;}
	.st23{clip-path:url(#SVGID_28_);enable-background:new    ;}
	.st24{clip-path:url(#SVGID_30_);enable-background:new    ;}
	.st25{clip-path:url(#SVGID_32_);enable-background:new    ;}
	.st26{clip-path:url(#SVGID_34_);enable-background:new    ;}
	.st27{clip-path:url(#SVGID_36_);enable-background:new    ;}
</style>
<g>
	<path class="st0" d="M257.2,225.9c-0.8,0-1.6-0.2-2.3-0.6l-13.6-8.1l0.8-1.4l13.6,8.1c0.9,0.5,2,0.5,2.9,0l22.1-12.9
		c0.4-0.2,0.6-0.6,0.6-1c0-0.4-0.2-0.8-0.6-1l-29.5-15.8l0.8-1.4l29.5,15.8c0.9,0.5,1.4,1.3,1.4,2.3c0,1-0.5,1.9-1.3,2.4l-22.1,12.9
		C258.7,225.7,257.9,225.9,257.2,225.9z"/>
	<path class="st0" d="M202.2,348.2c-1,0-1.9-0.2-2.8-0.7l-54.2-30.2c-0.8-0.4-1.3-1.3-1.3-2.2c0-0.9,0.5-1.7,1.3-2.2l24.5-13.8
		c0.4-0.2,0.4-0.6,0.4-0.7c0-0.1,0-0.5-0.4-0.7L142.5,282c-0.8-0.4-1.2-1.2-1.2-2.1s0.4-1.7,1.1-2.1l11.1-7.1l0.9,1.3l-11.1,7.1
		c-0.4,0.2-0.4,0.6-0.4,0.7c0,0.1,0.1,0.5,0.4,0.7l27.3,15.7c0.8,0.4,1.2,1.2,1.2,2.1c0,0.9-0.5,1.7-1.2,2.1L146,314.4
		c-0.4,0.2-0.5,0.6-0.5,0.8c0,0.2,0,0.5,0.5,0.8l54.2,30.2c1.3,0.7,2.9,0.7,4.1-0.1l20.6-12.7c0.2-0.1,0.2-0.3,0.2-0.3
		c0-0.1,0-0.2-0.2-0.3l-14.9-9.1l0.8-1.4l14.9,9.1c0.6,0.4,1,1,1,1.7c0,0.7-0.4,1.3-0.9,1.7l-20.6,12.7
		C204.3,347.9,203.3,348.2,202.2,348.2z"/>
	<g>
		<path class="st0" d="M225.7,226.7l-26.1-15.1c-1.6-0.9-1.4-2.5,0.4-3.6l25.2-14.6c1.9-1.1,4.7-1.2,6.3-0.3l26.1,15.1
			c1.6,0.9,1.4,2.5-0.4,3.6l-25.2,14.6C230.1,227.5,227.3,227.7,225.7,226.7z"/>
	</g>
	<g>
		<path class="st1" d="M267.1,195.5L267.1,195.5v-11.3l-25.3,0l-8.7-5.1c-2-1.2-5.5-1-7.8,0.3l-8.2,4.7l-25.3,0v11.6
			c-0.1,0.8,0.4,1.5,1.3,2.1l32.7,18.9c2,1.2,5.5,1,7.8-0.3l31.6-18.2C266.5,197.4,267.2,196.4,267.1,195.5z"/>
		<path class="st1" d="M229.4,178.3c-1.5,0-3,0.4-4.2,1.1l-8.2,4.7l-25.3,0v11.6c-0.1,0.8,0.4,1.5,1.3,2.1l32.7,18.9
			c1,0.6,2.3,0.8,3.6,0.8V178.3z"/>
		<path class="st2" d="M194.6,184.1l-2.9,0v11.6c-0.1,0.8,0.4,1.5,1.3,2.1l1.5,0.9V184.1z"/>
		<path class="st2" d="M226.3,217c1.7,0.7,4.2,0.7,6.3-0.1v-13.2h-6.3V217z"/>
		<path class="st0" d="M225.8,205.2L193,186.3c-2-1.2-1.8-3.2,0.6-4.5l31.6-18.2c2.3-1.3,5.8-1.5,7.8-0.3l32.7,18.9
			c2,1.2,1.8,3.2-0.6,4.5l-31.6,18.2C231.3,206.2,227.8,206.3,225.8,205.2z"/>
		<path class="st2" d="M226.4,201.8l-27.4-15.8c-1.7-1-1.5-2.7,0.5-3.8l26.5-15.3c1.9-1.1,4.9-1.2,6.6-0.3l27.4,15.8
			c1.7,1,1.5,2.7-0.5,3.8l-26.5,15.3C231,202.6,228,202.7,226.4,201.8z"/>
		<g>
			<path class="st0" d="M255.1,198.5c0,0.8-0.6,1.9-1.3,2.3c-0.7,0.4-1.3,0.1-1.3-0.8c0-0.8,0.6-1.9,1.3-2.3
				C254.5,197.3,255.1,197.6,255.1,198.5z"/>
			<path class="st0" d="M259.3,196c0,0.8-0.6,1.9-1.3,2.3c-0.7,0.4-1.3,0.1-1.3-0.8c0-0.8,0.6-1.9,1.3-2.3
				C258.7,194.8,259.3,195.2,259.3,196z"/>
			<path class="st0" d="M263.6,193.5c0,0.8-0.6,1.9-1.3,2.3c-0.7,0.4-1.3,0.1-1.3-0.8c0-0.8,0.6-1.9,1.3-2.3
				C263,192.4,263.6,192.7,263.6,193.5z"/>
		</g>
	</g>
	<g>
		<path class="st1" d="M267.1,177.4L267.1,177.4v-11.3l-25.3,0l-8.7-5.1c-2-1.2-5.5-1-7.8,0.3l-8.2,4.7l-25.3,0v11.6
			c-0.1,0.8,0.4,1.5,1.3,2.1l32.7,18.9c2,1.2,5.5,1,7.8-0.3l31.6-18.2C266.5,179.4,267.2,178.4,267.1,177.4z"/>
		<path class="st1" d="M229.4,160.3c-1.5,0-3,0.4-4.2,1.1l-8.2,4.7l-25.3,0v11.6c-0.1,0.8,0.4,1.5,1.3,2.1l32.7,18.9
			c1,0.6,2.3,0.8,3.6,0.8V160.3z"/>
		<path class="st2" d="M194.6,166.1l-2.9,0v11.6c-0.1,0.8,0.4,1.5,1.3,2.1l1.5,0.9V166.1z"/>
		<path class="st2" d="M226.3,199c1.7,0.7,4.2,0.7,6.3-0.1v-13.2h-6.3V199z"/>
		<path class="st0" d="M225.8,187.1L193,168.2c-2-1.2-1.8-3.2,0.6-4.5l31.6-18.2c2.3-1.3,5.8-1.5,7.8-0.3l32.7,18.9
			c2,1.2,1.8,3.2-0.6,4.5l-31.6,18.2C231.3,188.2,227.8,188.3,225.8,187.1z"/>
		<path class="st2" d="M226.4,183.7l-27.4-15.8c-1.7-1-1.5-2.7,0.5-3.8l26.5-15.3c1.9-1.1,4.9-1.2,6.6-0.3l27.4,15.8
			c1.7,1,1.5,2.7-0.5,3.8l-26.5,15.3C231,184.6,228,184.7,226.4,183.7z"/>
		<g>
			<path class="st0" d="M255.1,180.4c0,0.8-0.6,1.9-1.3,2.3c-0.7,0.4-1.3,0.1-1.3-0.8c0-0.8,0.6-1.9,1.3-2.3
				C254.5,179.2,255.1,179.6,255.1,180.4z"/>
			<path class="st0" d="M259.3,178c0,0.8-0.6,1.9-1.3,2.3c-0.7,0.4-1.3,0.1-1.3-0.8c0-0.8,0.6-1.9,1.3-2.3
				C258.7,176.8,259.3,177.1,259.3,178z"/>
			<path class="st0" d="M263.6,175.5c0,0.8-0.6,1.9-1.3,2.3c-0.7,0.4-1.3,0.1-1.3-0.8c0-0.8,0.6-1.9,1.3-2.3
				C263,174.3,263.6,174.7,263.6,175.5z"/>
		</g>
	</g>
	<g>
		<path class="st1" d="M267.1,159.4L267.1,159.4v-11.3l-25.3,0L233,143c-2-1.2-5.5-1-7.8,0.3l-8.2,4.7l-25.3,0v11.6
			c-0.1,0.8,0.4,1.5,1.3,2.1l32.7,18.9c2,1.2,5.5,1,7.8-0.3l31.6-18.2C266.5,161.3,267.2,160.3,267.1,159.4z"/>
		<path class="st1" d="M229.4,142.3c-1.5,0-3,0.4-4.2,1.1l-8.2,4.7l-25.3,0v11.6c-0.1,0.8,0.4,1.5,1.3,2.1l32.7,18.9
			c1,0.6,2.3,0.8,3.6,0.8V142.3z"/>
		<path class="st2" d="M194.6,148.1l-2.9,0v11.6c-0.1,0.8,0.4,1.5,1.3,2.1l1.5,0.9V148.1z"/>
		<path class="st2" d="M226.3,180.9c1.7,0.7,4.2,0.7,6.3-0.1v-13.2h-6.3V180.9z"/>
		<path class="st0" d="M225.8,169.1L193,150.2c-2-1.2-1.8-3.2,0.6-4.5l31.6-18.2c2.3-1.3,5.8-1.5,7.8-0.3l32.7,18.9
			c2,1.2,1.8,3.2-0.6,4.5l-31.6,18.2C231.3,170.1,227.8,170.3,225.8,169.1z"/>
		<path class="st3" d="M265.2,148.3l-31.6,18.2c-2.3,1.3-5.8,1.5-7.8,0.3L193,148c-0.4-0.3-0.8-0.6-1-0.9c-0.7,1.1-0.4,2.3,1,3.1
			l32.7,18.9c2,1.2,5.5,1,7.8-0.3l31.6-18.2c1.8-1,2.3-2.5,1.6-3.6C266.4,147.4,265.9,147.9,265.2,148.3z"/>
		<g>
			<path class="st0" d="M255.1,162.4c0,0.8-0.6,1.9-1.3,2.3c-0.7,0.4-1.3,0.1-1.3-0.8c0-0.8,0.6-1.9,1.3-2.3
				C254.5,161.2,255.1,161.5,255.1,162.4z"/>
			<path class="st0" d="M259.3,159.9c0,0.8-0.6,1.9-1.3,2.3c-0.7,0.4-1.3,0.1-1.3-0.8c0-0.8,0.6-1.9,1.3-2.3
				C258.7,158.7,259.3,159.1,259.3,159.9z"/>
			<path class="st0" d="M263.6,157.5c0,0.8-0.6,1.9-1.3,2.3c-0.7,0.4-1.3,0.1-1.3-0.8c0-0.8,0.6-1.9,1.3-2.3
				C263,156.3,263.6,156.6,263.6,157.5z"/>
		</g>
		<g>
			<path class="st2" d="M227.7,157.4l-15.3-8.8c-0.9-0.5-0.8-1.5,0.3-2.1l14.8-8.5c1.1-0.6,2.7-0.7,3.7-0.2l15.3,8.8
				c0.9,0.5,0.8,1.5-0.3,2.1l-14.8,8.5C230.3,157.9,228.6,157.9,227.7,157.4z"/>
			<path class="st0" d="M229.2,150l-2.1-1.2c-0.1-0.1-0.1-0.2,0-0.3l2-1.2c0.2-0.1,0.4-0.1,0.5,0l2.1,1.2c0.1,0.1,0.1,0.2,0,0.3
				l-2,1.2C229.5,150,229.3,150.1,229.2,150z"/>
			<path class="st2" d="M212.4,148.5L212.4,148.5c0.1,0,0.2-0.1,0.3-0.1l14.8-8.5c1.1-0.6,2.7-0.7,3.7-0.2l15.3,8.8
				c0.9-0.6,0.9-1.5,0-2l-15.3-8.8c-0.9-0.5-2.6-0.5-3.7,0.2l-14.8,8.5C211.6,147.1,211.4,148,212.4,148.5z"/>
		</g>
	</g>
	<g>
		<path class="st0" d="M223.7,172.4c0,0.6-0.4,0.8-0.9,0.5c-0.5-0.3-0.9-1-0.9-1.5c0-0.6,0.4-0.8,0.9-0.5
			C223.3,171.1,223.7,171.8,223.7,172.4z"/>
		<path class="st0" d="M220.9,170.8c0,0.6-0.4,0.8-0.9,0.5c-0.5-0.3-0.9-1-0.9-1.5c0-0.6,0.4-0.8,0.9-0.5
			C220.5,169.6,220.9,170.2,220.9,170.8z"/>
		<path class="st0" d="M223.7,175.7c0,0.6-0.4,0.8-0.9,0.5c-0.5-0.3-0.9-1-0.9-1.5s0.4-0.8,0.9-0.5
			C223.3,174.5,223.7,175.2,223.7,175.7z"/>
		<path class="st0" d="M220.9,174.1c0,0.6-0.4,0.8-0.9,0.5c-0.5-0.3-0.9-1-0.9-1.5c0-0.6,0.4-0.8,0.9-0.5
			C220.5,172.9,220.9,173.6,220.9,174.1z"/>
	</g>
	<g>
		<path class="st0" d="M223.7,190.3c0,0.6-0.4,0.8-0.9,0.5c-0.5-0.3-0.9-1-0.9-1.5c0-0.6,0.4-0.8,0.9-0.5
			C223.3,189.1,223.7,189.8,223.7,190.3z"/>
		<path class="st0" d="M220.9,188.8c0,0.6-0.4,0.8-0.9,0.5c-0.5-0.3-0.9-1-0.9-1.5c0-0.6,0.4-0.8,0.9-0.5
			C220.5,187.5,220.9,188.2,220.9,188.8z"/>
		<path class="st0" d="M223.7,193.7c0,0.6-0.4,0.8-0.9,0.5c-0.5-0.3-0.9-1-0.9-1.5s0.4-0.8,0.9-0.5
			C223.3,192.4,223.7,193.1,223.7,193.7z"/>
		<path class="st0" d="M220.9,192.1c0,0.6-0.4,0.8-0.9,0.5c-0.5-0.3-0.9-1-0.9-1.5c0-0.6,0.4-0.8,0.9-0.5
			C220.5,190.8,220.9,191.5,220.9,192.1z"/>
	</g>
	<g>
		<path class="st0" d="M223.7,208.3c0,0.6-0.4,0.8-0.9,0.5c-0.5-0.3-0.9-1-0.9-1.5c0-0.6,0.4-0.8,0.9-0.5
			C223.3,207,223.7,207.7,223.7,208.3z"/>
		<path class="st0" d="M220.9,206.7c0,0.6-0.4,0.8-0.9,0.5c-0.5-0.3-0.9-1-0.9-1.5c0-0.6,0.4-0.8,0.9-0.5
			C220.5,205.5,220.9,206.1,220.9,206.7z"/>
		<path class="st0" d="M223.7,211.6c0,0.6-0.4,0.8-0.9,0.5c-0.5-0.3-0.9-1-0.9-1.5c0-0.6,0.4-0.8,0.9-0.5
			C223.3,210.4,223.7,211.1,223.7,211.6z"/>
		<path class="st0" d="M220.9,210c0,0.6-0.4,0.8-0.9,0.5c-0.5-0.3-0.9-1-0.9-1.5c0-0.6,0.4-0.8,0.9-0.5
			C220.5,208.8,220.9,209.5,220.9,210z"/>
	</g>
	<g>
		<g>
			<g>
				<path class="st0" d="M166.8,280.9l-56.5-32.2c-2.1-1.2-1.8-3.3,0.6-4.7l32.5-18.8c2.4-1.4,6-1.5,8.1-0.3l56.5,32.2
					c2.1,1.2,1.8,3.3-0.6,4.7l-32.5,18.8C172.5,281.9,168.9,282,166.8,280.9z"/>
				<path class="st1" d="M213,246.3L213,246.3V114.4l-52.4-13.7l-9.7-5.6c-2.2-1.3-6.1-1.1-8.6,0.4l-9,5.2l-28,0l8.3,127.3
					c-0.1,0.9,0.4,1.7,1.5,2.3l52.3,39.5c2.2,1.3,6.1,1.1,8.6-0.4l34.9-20.1C212.3,248.4,213,247.3,213,246.3z"/>
				<path class="st0" d="M146.9,94.3c-1.6,0-3.3,0.4-4.6,1.2l-9,5.2l-28,0v132.2c-0.1,0.9,0.4,1.7,1.5,2.3l60.6,34.5
					c1.1,0.6,2.5,0.9,4,0.9l0.6-133L146.9,94.3z"/>
				<path class="st2" d="M167.9,270c1.9,0.8,4.7,0.8,6.9-0.1V136h-6.9V270z"/>
				<path class="st0" d="M167.4,137.6L106.8,103c-2.2-1.3-1.9-3.5,0.6-5l34.9-20.1c2.6-1.5,6.4-1.6,8.6-0.4l60.6,34.5
					c2.2,1.3,1.9,3.5-0.6,5L176,137.2C173.4,138.7,169.6,138.9,167.4,137.6z"/>
				<path class="st4" d="M210.9,114.7L176,134.8c-2.6,1.5-6.4,1.6-8.6,0.4l-60.6-34.5c-0.5-0.3-0.9-0.6-1.1-1
					c-0.8,1.2-0.4,2.6,1.1,3.4l60.6,34.5c2.2,1.3,6.1,1.1,8.6-0.4l34.9-20.1c2-1.1,2.6-2.8,1.7-4
					C212.2,113.7,211.7,114.2,210.9,114.7z"/>
				<g>
					<path class="st5" d="M169.1,123.6l-40.3-23.4c-1-0.6-0.9-1.6,0.3-2.3l16.3-9.4c1.2-0.7,3-0.8,4-0.2l40.3,23.4
						c1,0.6,0.9,1.6-0.3,2.3l-16.3,9.4C171.9,124.1,170.1,124.2,169.1,123.6z"/>
					<g>
						<path class="st0" d="M147.3,101.3l-2.3-1.3c-0.1-0.1-0.1-0.2,0-0.3l2.3-1.3c0.2-0.1,0.4-0.1,0.6,0l2.3,1.3
							c0.1,0.1,0.1,0.2,0,0.3l-2.3,1.3C147.7,101.3,147.4,101.3,147.3,101.3z"/>
						<path class="st0" d="M155.1,105.8l-2.3-1.3c-0.1-0.1-0.1-0.2,0-0.3l2.3-1.3c0.2-0.1,0.4-0.1,0.6,0l2.3,1.3
							c0.1,0.1,0.1,0.2,0,0.3l-2.3,1.3C155.5,105.8,155.2,105.8,155.1,105.8z"/>
						<path class="st0" d="M162.9,110.2l-2.3-1.3c-0.1-0.1-0.1-0.2,0-0.3l2.3-1.3c0.2-0.1,0.4-0.1,0.6,0l2.3,1.3
							c0.1,0.1,0.1,0.2,0,0.3l-2.3,1.3C163.3,110.3,163.1,110.3,162.9,110.2z"/>
						<path class="st0" d="M170.7,114.7l-2.3-1.3c-0.1-0.1-0.1-0.2,0-0.3l2.3-1.3c0.2-0.1,0.4-0.1,0.6,0l2.3,1.3
							c0.1,0.1,0.1,0.2,0,0.3l-2.3,1.3C171.1,114.8,170.9,114.8,170.7,114.7z"/>
					</g>
					<path class="st2" d="M128.7,100.2L128.7,100.2c0.1,0,0.2-0.1,0.3-0.1l16.3-9.4c1.2-0.7,3-0.8,4-0.2l40.3,23.4
						c1-0.7,1-1.6,0-2.2l-40.3-23.4c-1-0.6-2.8-0.5-4,0.2L129,97.9C127.8,98.6,127.7,99.6,128.7,100.2z"/>
				</g>
			</g>
			<g>
				<path class="st6" d="M182.8,163.7l22.9-13.1c1.3-0.7,2.3-2.7,2.3-4.5v-8.2c0-1.7-1-2.5-2.3-1.8l-22.9,13.1
					c-1.3,0.7-2.3,2.7-2.3,4.5v8.2C180.5,163.7,181.5,164.5,182.8,163.7z"/>
				<path class="st3" d="M206.9,135.9c0.4,0.3,0.6,0.9,0.6,1.7v8.2c0,1.7-1,3.7-2.3,4.5l-22.9,13.1c-0.4,0.2-0.8,0.3-1.1,0.2
					c0.4,0.4,1,0.5,1.8,0.1l22.9-13.1c1.3-0.7,2.3-2.7,2.3-4.5v-8.2C208.1,136.7,207.6,136,206.9,135.9z"/>
				<g>
					<path class="st0" d="M189.7,154.8l2.1-1.2c0.3-0.2,0.5-0.6,0.5-1v-2.2c0-0.4-0.2-0.5-0.5-0.4l-2.1,1.2c-0.3,0.2-0.5,0.6-0.5,1
						v2.2C189.2,154.8,189.4,155,189.7,154.8z"/>
					<path class="st3" d="M196.7,150.7l2.1-1.2c0.3-0.2,0.5-0.6,0.5-1v-2.2c0-0.4-0.2-0.5-0.5-0.4l-2.1,1.2c-0.3,0.2-0.5,0.6-0.5,1
						v2.2C196.2,150.7,196.5,150.9,196.7,150.7z"/>
				</g>
			</g>
			<g>
				<path class="st6" d="M182.8,223l22.9-13.1c1.3-0.7,2.3-2.7,2.3-4.5v-8.2c0-1.7-1-2.5-2.3-1.8l-22.9,13.1
					c-1.3,0.7-2.3,2.7-2.3,4.5v8.2C180.5,222.9,181.5,223.7,182.8,223z"/>
				<path class="st3" d="M206.9,195.2c0.4,0.3,0.6,0.9,0.6,1.7v8.2c0,1.7-1,3.7-2.3,4.5l-22.9,13.1c-0.4,0.2-0.8,0.3-1.1,0.2
					c0.4,0.4,1,0.5,1.8,0.1l22.9-13.1c1.3-0.7,2.3-2.7,2.3-4.5v-8.2C208.1,196,207.6,195.3,206.9,195.2z"/>
				<g>
					<path class="st0" d="M189.7,214.1l2.1-1.2c0.3-0.2,0.5-0.6,0.5-1v-2.2c0-0.4-0.2-0.5-0.5-0.4l-2.1,1.2c-0.3,0.2-0.5,0.6-0.5,1
						v2.2C189.2,214.1,189.4,214.2,189.7,214.1z"/>
					<path class="st0" d="M196.7,210l2.1-1.2c0.3-0.2,0.5-0.6,0.5-1v-2.2c0-0.4-0.2-0.5-0.5-0.4l-2.1,1.2c-0.3,0.2-0.5,0.6-0.5,1
						v2.2C196.2,210,196.5,210.2,196.7,210z"/>
				</g>
			</g>
			<g>
				<path class="st6" d="M182.8,252.6l22.9-13.1c1.3-0.7,2.3-2.7,2.3-4.5v-8.2c0-1.7-1-2.5-2.3-1.8l-22.9,13.1
					c-1.3,0.7-2.3,2.7-2.3,4.5v8.2C180.5,252.6,181.5,253.3,182.8,252.6z"/>
				<path class="st3" d="M206.9,224.8c0.4,0.3,0.6,0.9,0.6,1.7v8.2c0,1.7-1,3.7-2.3,4.5l-22.9,13.1c-0.4,0.2-0.8,0.3-1.1,0.2
					c0.4,0.4,1,0.5,1.8,0.1l22.9-13.1c1.3-0.7,2.3-2.7,2.3-4.5v-8.2C208.1,225.6,207.6,224.9,206.9,224.8z"/>
				<g>
					<path class="st3" d="M189.7,243.7l2.1-1.2c0.3-0.2,0.5-0.6,0.5-1v-2.2c0-0.4-0.2-0.5-0.5-0.4l-2.1,1.2c-0.3,0.2-0.5,0.6-0.5,1
						v2.2C189.2,243.7,189.4,243.9,189.7,243.7z"/>
					<path class="st0" d="M196.7,239.6l2.1-1.2c0.3-0.2,0.5-0.6,0.5-1v-2.2c0-0.4-0.2-0.5-0.5-0.4l-2.1,1.2c-0.3,0.2-0.5,0.6-0.5,1
						v2.2C196.2,239.6,196.5,239.8,196.7,239.6z"/>
				</g>
			</g>
			<g>
				<path class="st6" d="M182.8,193.3l22.9-13.1c1.3-0.7,2.3-2.7,2.3-4.5v-8.2c0-1.7-1-2.5-2.3-1.8l-22.9,13.1
					c-1.3,0.7-2.3,2.7-2.3,4.5v8.2C180.5,193.3,181.5,194.1,182.8,193.3z"/>
				<path class="st3" d="M206.9,165.5c0.4,0.3,0.6,0.9,0.6,1.7v8.2c0,1.7-1,3.7-2.3,4.5L182.2,193c-0.4,0.2-0.8,0.3-1.1,0.2
					c0.4,0.4,1,0.5,1.8,0.1l22.9-13.1c1.3-0.7,2.3-2.7,2.3-4.5v-8.2C208.1,166.4,207.6,165.7,206.9,165.5z"/>
				<g>
					<path class="st3" d="M189.7,184.4l2.1-1.2c0.3-0.2,0.5-0.6,0.5-1V180c0-0.4-0.2-0.5-0.5-0.4l-2.1,1.2c-0.3,0.2-0.5,0.6-0.5,1
						v2.2C189.2,184.4,189.4,184.6,189.7,184.4z"/>
					<path class="st3" d="M196.7,180.4l2.1-1.2c0.3-0.2,0.5-0.6,0.5-1v-2.2c0-0.4-0.2-0.5-0.5-0.4l-2.1,1.2c-0.3,0.2-0.5,0.6-0.5,1
						v2.2C196.2,180.4,196.5,180.5,196.7,180.4z"/>
				</g>
			</g>
		</g>
		<g>
			<path class="st2" d="M162.9,155.3L110,124.8c-1.2-0.7-2.1-2.5-2.1-4.1v-10.1c0-1.6,1-2.3,2.1-1.6l52.9,30.5
				c1.2,0.7,2.1,2.5,2.1,4.1v10.1C165.1,155.3,164.1,156,162.9,155.3z"/>
			<path class="st7" d="M161.4,151.8L111.6,123c-0.6-0.3-1.1-1.3-1.1-2.1v-7.6c0-0.8,0.5-1.2,1.1-0.8l49.9,28.8
				c0.6,0.3,1.1,1.3,1.1,2.1v7.6C162.5,151.8,162,152.1,161.4,151.8z"/>
			<path class="st0" d="M121.9,125.2l-7.4-4.3c-0.6-0.3-1.1-1.2-1.1-2l0,0c0-0.8,0.5-1.1,1.1-0.8l7.4,4.3c0.6,0.3,1.1,1.2,1.1,2l0,0
				C123,125.1,122.5,125.5,121.9,125.2z"/>
			<path class="st5" d="M128.3,127.4c0,0.8-0.5,1.1-1.2,0.7c-0.7-0.4-1.2-1.3-1.2-2.1c0-0.8,0.5-1.1,1.2-0.7
				C127.7,125.7,128.3,126.6,128.3,127.4z"/>
			<path class="st5" d="M132.6,129.9c0,0.8-0.5,1.1-1.2,0.7c-0.7-0.4-1.2-1.3-1.2-2.1c0-0.8,0.5-1.1,1.2-0.7
				C132,128.2,132.6,129.1,132.6,129.9z"/>
			<path class="st0" d="M136.9,132.4c0,0.8-0.5,1.1-1.2,0.7c-0.7-0.4-1.2-1.3-1.2-2.1c0-0.8,0.5-1.1,1.2-0.7
				C136.3,130.7,136.9,131.6,136.9,132.4z"/>
			<path class="st5" d="M141.2,134.9c0,0.8-0.5,1.1-1.2,0.7c-0.7-0.4-1.2-1.3-1.2-2.1c0-0.8,0.5-1.1,1.2-0.7
				C140.7,133.1,141.2,134.1,141.2,134.9z"/>
			<path class="st5" d="M159.3,147.6l-2.5-1.4c-0.4-0.2-0.7-0.8-0.7-1.3v-2.7c0-0.5,0.3-0.7,0.7-0.5l2.5,1.4
				c0.4,0.2,0.7,0.8,0.7,1.3v2.7C160,147.5,159.7,147.8,159.3,147.6z"/>
		</g>
		<g>
			<path class="st2" d="M162.9,173.1L110,142.6c-1.2-0.7-2.1-2.5-2.1-4.1v-10.1c0-1.6,1-2.3,2.1-1.6l52.9,30.5
				c1.2,0.7,2.1,2.5,2.1,4.1v10.1C165.1,173.1,164.1,173.8,162.9,173.1z"/>
			<path class="st7" d="M161.4,169.6l-49.9-28.8c-0.6-0.3-1.1-1.3-1.1-2.1v-7.6c0-0.8,0.5-1.2,1.1-0.8l49.9,28.8
				c0.6,0.3,1.1,1.3,1.1,2.1v7.6C162.5,169.5,162,169.9,161.4,169.6z"/>
			<path class="st0" d="M121.9,142.9l-7.4-4.3c-0.6-0.3-1.1-1.2-1.1-2l0,0c0-0.8,0.5-1.1,1.1-0.8l7.4,4.3c0.6,0.3,1.1,1.2,1.1,2l0,0
				C123,142.9,122.5,143.3,121.9,142.9z"/>
			<path class="st3" d="M128.3,145.2c0,0.8-0.5,1.1-1.2,0.7c-0.7-0.4-1.2-1.3-1.2-2.1c0-0.8,0.5-1.1,1.2-0.7
				C127.7,143.5,128.3,144.4,128.3,145.2z"/>
			<path class="st5" d="M132.6,147.7c0,0.8-0.5,1.1-1.2,0.7c-0.7-0.4-1.2-1.3-1.2-2.1c0-0.8,0.5-1.1,1.2-0.7
				C132,146,132.6,146.9,132.6,147.7z"/>
			<path class="st0" d="M136.9,150.2c0,0.8-0.5,1.1-1.2,0.7c-0.7-0.4-1.2-1.3-1.2-2.1c0-0.8,0.5-1.1,1.2-0.7
				C136.3,148.4,136.9,149.4,136.9,150.2z"/>
			<path class="st5" d="M141.2,152.7c0,0.8-0.5,1.1-1.2,0.7c-0.7-0.4-1.2-1.3-1.2-2.1c0-0.8,0.5-1.1,1.2-0.7
				C140.7,150.9,141.2,151.9,141.2,152.7z"/>
			<path class="st5" d="M159.3,165.3l-2.5-1.4c-0.4-0.2-0.7-0.8-0.7-1.3V160c0-0.5,0.3-0.7,0.7-0.5l2.5,1.4c0.4,0.2,0.7,0.8,0.7,1.3
				v2.7C160,165.3,159.7,165.6,159.3,165.3z"/>
		</g>
		<g>
			<path class="st2" d="M162.9,190.9L110,160.4c-1.2-0.7-2.1-2.5-2.1-4.1v-10.1c0-1.6,1-2.3,2.1-1.6l52.9,30.5
				c1.2,0.7,2.1,2.5,2.1,4.1v10.1C165.1,190.9,164.1,191.6,162.9,190.9z"/>
			<path class="st7" d="M161.4,187.4l-49.9-28.8c-0.6-0.3-1.1-1.3-1.1-2.1v-7.6c0-0.8,0.5-1.2,1.1-0.8l49.9,28.8
				c0.6,0.3,1.1,1.3,1.1,2.1v7.6C162.5,187.3,162,187.7,161.4,187.4z"/>
			<path class="st0" d="M121.9,160.7l-7.4-4.3c-0.6-0.3-1.1-1.2-1.1-2l0,0c0-0.8,0.5-1.1,1.1-0.8l7.4,4.3c0.6,0.3,1.1,1.2,1.1,2l0,0
				C123,160.7,122.5,161.1,121.9,160.7z"/>
			<path class="st3" d="M128.3,163c0,0.8-0.5,1.1-1.2,0.7c-0.7-0.4-1.2-1.3-1.2-2.1c0-0.8,0.5-1.1,1.2-0.7
				C127.7,161.3,128.3,162.2,128.3,163z"/>
			<path class="st5" d="M132.6,165.5c0,0.8-0.5,1.1-1.2,0.7c-0.7-0.4-1.2-1.3-1.2-2.1c0-0.8,0.5-1.1,1.2-0.7
				C132,163.7,132.6,164.7,132.6,165.5z"/>
			<path class="st0" d="M136.9,168c0,0.8-0.5,1.1-1.2,0.7c-0.7-0.4-1.2-1.3-1.2-2.1c0-0.8,0.5-1.1,1.2-0.7
				C136.3,166.2,136.9,167.2,136.9,168z"/>
			<path class="st5" d="M141.2,170.4c0,0.8-0.5,1.1-1.2,0.7c-0.7-0.4-1.2-1.3-1.2-2.1c0-0.8,0.5-1.1,1.2-0.7
				C140.7,168.7,141.2,169.7,141.2,170.4z"/>
			<path class="st5" d="M159.3,183.1l-2.5-1.4c-0.4-0.2-0.7-0.8-0.7-1.3v-2.7c0-0.5,0.3-0.7,0.7-0.5l2.5,1.4
				c0.4,0.2,0.7,0.8,0.7,1.3v2.7C160,183.1,159.7,183.4,159.3,183.1z"/>
		</g>
		<g>
			<path class="st2" d="M162.9,208.7L110,178.1c-1.2-0.7-2.1-2.5-2.1-4.1V164c0-1.6,1-2.3,2.1-1.6l52.9,30.5
				c1.2,0.7,2.1,2.5,2.1,4.1v10.1C165.1,208.6,164.1,209.4,162.9,208.7z"/>
			<path class="st7" d="M161.4,205.2l-49.9-28.8c-0.6-0.3-1.1-1.3-1.1-2.1v-7.6c0-0.8,0.5-1.2,1.1-0.8l49.9,28.8
				c0.6,0.3,1.1,1.3,1.1,2.1v7.6C162.5,205.1,162,205.5,161.4,205.2z"/>
			<path class="st0" d="M121.9,178.5l-7.4-4.3c-0.6-0.3-1.1-1.2-1.1-2l0,0c0-0.8,0.5-1.1,1.1-0.8l7.4,4.3c0.6,0.3,1.1,1.2,1.1,2l0,0
				C123,178.5,122.5,178.9,121.9,178.5z"/>
			<path class="st5" d="M128.3,180.8c0,0.8-0.5,1.1-1.2,0.7c-0.7-0.4-1.2-1.3-1.2-2.1c0-0.8,0.5-1.1,1.2-0.7
				C127.7,179.1,128.3,180,128.3,180.8z"/>
			<path class="st5" d="M132.6,183.3c0,0.8-0.5,1.1-1.2,0.7c-0.7-0.4-1.2-1.3-1.2-2.1c0-0.8,0.5-1.1,1.2-0.7
				C132,181.5,132.6,182.5,132.6,183.3z"/>
			<path class="st0" d="M136.9,185.7c0,0.8-0.5,1.1-1.2,0.7c-0.7-0.4-1.2-1.3-1.2-2.1c0-0.8,0.5-1.1,1.2-0.7
				C136.3,184,136.9,185,136.9,185.7z"/>
			<path class="st5" d="M141.2,188.2c0,0.8-0.5,1.1-1.2,0.7c-0.7-0.4-1.2-1.3-1.2-2.1c0-0.8,0.5-1.1,1.2-0.7
				C140.7,186.5,141.2,187.5,141.2,188.2z"/>
			<path class="st0" d="M159.3,200.9l-2.5-1.4c-0.4-0.2-0.7-0.8-0.7-1.3v-2.7c0-0.5,0.3-0.7,0.7-0.5l2.5,1.4
				c0.4,0.2,0.7,0.8,0.7,1.3v2.7C160,200.9,159.7,201.1,159.3,200.9z"/>
		</g>
		<g>
			<path class="st2" d="M162.9,226.5L110,195.9c-1.2-0.7-2.1-2.5-2.1-4.1v-10.1c0-1.6,1-2.3,2.1-1.6l52.9,30.5
				c1.2,0.7,2.1,2.5,2.1,4.1v10.1C165.1,226.4,164.1,227.2,162.9,226.5z"/>
			<path class="st7" d="M161.4,222.9l-49.9-28.8c-0.6-0.3-1.1-1.3-1.1-2.1v-7.6c0-0.8,0.5-1.2,1.1-0.8l49.9,28.8
				c0.6,0.3,1.1,1.3,1.1,2.1v7.6C162.5,222.9,162,223.3,161.4,222.9z"/>
			<path class="st0" d="M121.9,196.3l-7.4-4.3c-0.6-0.3-1.1-1.2-1.1-2l0,0c0-0.8,0.5-1.1,1.1-0.8l7.4,4.3c0.6,0.3,1.1,1.2,1.1,2l0,0
				C123,196.3,122.5,196.7,121.9,196.3z"/>
			<path class="st5" d="M128.3,198.6c0,0.8-0.5,1.1-1.2,0.7c-0.7-0.4-1.2-1.3-1.2-2.1c0-0.8,0.5-1.1,1.2-0.7
				C127.7,196.8,128.3,197.8,128.3,198.6z"/>
			<path class="st3" d="M132.6,201.1c0,0.8-0.5,1.1-1.2,0.7c-0.7-0.4-1.2-1.3-1.2-2.1c0-0.8,0.5-1.1,1.2-0.7
				C132,199.3,132.6,200.3,132.6,201.1z"/>
			<path class="st0" d="M136.9,203.5c0,0.8-0.5,1.1-1.2,0.7c-0.7-0.4-1.2-1.3-1.2-2.1c0-0.8,0.5-1.1,1.2-0.7
				C136.3,201.8,136.9,202.8,136.9,203.5z"/>
			<path class="st3" d="M141.2,206c0,0.8-0.5,1.1-1.2,0.7c-0.7-0.4-1.2-1.3-1.2-2.1c0-0.8,0.5-1.1,1.2-0.7
				C140.7,204.3,141.2,205.2,141.2,206z"/>
			<path class="st0" d="M159.3,218.7l-2.5-1.4c-0.4-0.2-0.7-0.8-0.7-1.3v-2.7c0-0.5,0.3-0.7,0.7-0.5l2.5,1.4
				c0.4,0.2,0.7,0.8,0.7,1.3v2.7C160,218.7,159.7,218.9,159.3,218.7z"/>
		</g>
		<g>
			<path class="st2" d="M162.9,244.3L110,213.7c-1.2-0.7-2.1-2.5-2.1-4.1v-10.1c0-1.6,1-2.3,2.1-1.6l52.9,30.5
				c1.2,0.7,2.1,2.5,2.1,4.1v10.1C165.1,244.2,164.1,245,162.9,244.3z"/>
			<path class="st7" d="M161.4,240.7l-49.9-28.8c-0.6-0.3-1.1-1.3-1.1-2.1v-7.6c0-0.8,0.5-1.2,1.1-0.8l49.9,28.8
				c0.6,0.3,1.1,1.3,1.1,2.1v7.6C162.5,240.7,162,241.1,161.4,240.7z"/>
			<path class="st0" d="M121.9,214.1l-7.4-4.3c-0.6-0.3-1.1-1.2-1.1-2l0,0c0-0.8,0.5-1.1,1.1-0.8l7.4,4.3c0.6,0.3,1.1,1.2,1.1,2l0,0
				C123,214.1,122.5,214.4,121.9,214.1z"/>
			<path class="st5" d="M128.3,216.4c0,0.8-0.5,1.1-1.2,0.7c-0.7-0.4-1.2-1.3-1.2-2.1c0-0.8,0.5-1.1,1.2-0.7
				C127.7,214.6,128.3,215.6,128.3,216.4z"/>
			<path class="st5" d="M132.6,218.8c0,0.8-0.5,1.1-1.2,0.7c-0.7-0.4-1.2-1.3-1.2-2.1c0-0.8,0.5-1.1,1.2-0.7
				C132,217.1,132.6,218.1,132.6,218.8z"/>
			<path class="st0" d="M136.9,221.3c0,0.8-0.5,1.1-1.2,0.7c-0.7-0.4-1.2-1.3-1.2-2.1c0-0.8,0.5-1.1,1.2-0.7
				C136.3,219.6,136.9,220.5,136.9,221.3z"/>
			<path class="st5" d="M141.2,223.8c0,0.8-0.5,1.1-1.2,0.7c-0.7-0.4-1.2-1.3-1.2-2.1c0-0.8,0.5-1.1,1.2-0.7
				C140.7,222.1,141.2,223,141.2,223.8z"/>
			<path class="st5" d="M159.3,236.5l-2.5-1.4c-0.4-0.2-0.7-0.8-0.7-1.3v-2.7c0-0.5,0.3-0.7,0.7-0.5l2.5,1.4
				c0.4,0.2,0.7,0.8,0.7,1.3v2.7C160,236.5,159.7,236.7,159.3,236.5z"/>
		</g>
		<g>
			<path class="st2" d="M162.9,262.1L110,231.5c-1.2-0.7-2.1-2.5-2.1-4.1v-10.1c0-1.6,1-2.3,2.1-1.6l52.9,30.5
				c1.2,0.7,2.1,2.5,2.1,4.1v10.1C165.1,262,164.1,262.7,162.9,262.1z"/>
			<path class="st7" d="M161.4,258.5l-49.9-28.8c-0.6-0.3-1.1-1.3-1.1-2.1v-7.6c0-0.8,0.5-1.2,1.1-0.8l49.9,28.8
				c0.6,0.3,1.1,1.3,1.1,2.1v7.6C162.5,258.5,162,258.9,161.4,258.5z"/>
			<path class="st0" d="M121.9,231.9l-7.4-4.3c-0.6-0.3-1.1-1.2-1.1-2l0,0c0-0.8,0.5-1.1,1.1-0.8l7.4,4.3c0.6,0.3,1.1,1.2,1.1,2l0,0
				C123,231.9,122.5,232.2,121.9,231.9z"/>
			<path class="st3" d="M128.3,234.1c0,0.8-0.5,1.1-1.2,0.7c-0.7-0.4-1.2-1.3-1.2-2.1c0-0.8,0.5-1.1,1.2-0.7
				C127.7,232.4,128.3,233.4,128.3,234.1z"/>
			<path class="st5" d="M132.6,236.6c0,0.8-0.5,1.1-1.2,0.7c-0.7-0.4-1.2-1.3-1.2-2.1c0-0.8,0.5-1.1,1.2-0.7
				C132,234.9,132.6,235.9,132.6,236.6z"/>
			<path class="st0" d="M136.9,239.1c0,0.8-0.5,1.1-1.2,0.7c-0.7-0.4-1.2-1.3-1.2-2.1c0-0.8,0.5-1.1,1.2-0.7
				C136.3,237.4,136.9,238.3,136.9,239.1z"/>
			<path class="st5" d="M141.2,241.6c0,0.8-0.5,1.1-1.2,0.7c-0.7-0.4-1.2-1.3-1.2-2.1c0-0.8,0.5-1.1,1.2-0.7
				C140.7,239.9,141.2,240.8,141.2,241.6z"/>
			<path class="st0" d="M159.3,254.3l-2.5-1.4c-0.4-0.2-0.7-0.8-0.7-1.3v-2.7c0-0.5,0.3-0.7,0.7-0.5l2.5,1.4
				c0.4,0.2,0.7,0.8,0.7,1.3v2.7C160,254.3,159.7,254.5,159.3,254.3z"/>
		</g>
	</g>
	<polygon class="st3" points="191.3,241.3 190.2,241.3 190.2,181.7 197.3,177.7 197.3,148.3 198.3,148.3 198.3,178.3 191.3,182.3 	
		"/>
	<g>
		<path class="st0" d="M22.2,254.2c-0.6,0-1.2-0.2-1.8-0.5l-19.4-11c-0.6-0.3-0.9-0.9-0.9-1.6c0-0.7,0.3-1.3,0.9-1.6l48.5-28
			c2.8-1.6,6.2-1.6,9,0l55.4,32l-0.8,1.4l-55.4-32c-2.3-1.3-5.1-1.3-7.4,0l-48.5,28c-0.1,0.1-0.1,0.2-0.1,0.2c0,0.1,0,0.2,0.1,0.2
			l19.4,11c0.7,0.4,1.5,0.4,2.1-0.1l8.2-5.3l0.9,1.3l-8.2,5.3C23.6,254,22.9,254.2,22.2,254.2z"/>
	</g>
	<g>
		<path class="st0" d="M47.5,258.4l-26.1-15.1c-1.6-0.9-1.4-2.5,0.4-3.6L47,225.1c1.9-1.1,4.7-1.2,6.3-0.3L79.4,240
			c1.6,0.9,1.4,2.5-0.4,3.6l-25.2,14.6C51.9,259.2,49.1,259.3,47.5,258.4z"/>
		<g>
			<path class="st1" d="M88.1,228.5L88.1,228.5v-11.3l-25.3,0l-8.7-5.1c-2-1.2-5.5-1-7.8,0.3l-8.2,4.7l-25.3,0v11.6
				c-0.1,0.8,0.4,1.5,1.3,2.1l32.7,18.9c2,1.2,5.5,1,7.8-0.3l31.6-18.2C87.5,230.4,88.2,229.4,88.1,228.5z"/>
			<path class="st1" d="M50.4,211.3c-1.5,0-3,0.4-4.2,1.1l-8.2,4.7l-25.3,0v11.6c-0.1,0.8,0.4,1.5,1.3,2.1l32.7,18.9
				c1,0.6,2.3,0.8,3.6,0.8V211.3z"/>
			<path class="st2" d="M15.6,217.1l-2.9,0v11.6c-0.1,0.8,0.4,1.5,1.3,2.1l1.5,0.9V217.1z"/>
			<path class="st2" d="M47.3,250c1.7,0.7,4.2,0.7,6.3-0.1v-13.2h-6.3V250z"/>
			<path class="st0" d="M46.8,238.2L14,219.3c-2-1.2-1.8-3.2,0.6-4.5l31.6-18.2c2.3-1.3,5.8-1.5,7.8-0.3l32.7,18.9
				c2,1.2,1.8,3.2-0.6,4.5l-31.6,18.2C52.3,239.2,48.8,239.3,46.8,238.2z"/>
			<path class="st2" d="M47.4,234.8l-27.4-15.8c-1.7-1-1.5-2.7,0.5-3.8l26.5-15.3c1.9-1.1,4.9-1.2,6.6-0.3l27.4,15.8
				c1.7,1,1.5,2.7-0.5,3.8l-26.5,15.3C52,235.6,49,235.7,47.4,234.8z"/>
			<g>
				<path class="st0" d="M76.1,231.5c0,0.8-0.6,1.9-1.3,2.3c-0.7,0.4-1.3,0.1-1.3-0.8c0-0.8,0.6-1.9,1.3-2.3
					C75.5,230.3,76.1,230.6,76.1,231.5z"/>
				<path class="st0" d="M80.3,229c0,0.8-0.6,1.9-1.3,2.3c-0.7,0.4-1.3,0.1-1.3-0.8c0-0.8,0.6-1.9,1.3-2.3
					C79.7,227.8,80.3,228.2,80.3,229z"/>
				<path class="st0" d="M84.6,226.5c0,0.8-0.6,1.9-1.3,2.3c-0.7,0.4-1.3,0.1-1.3-0.8c0-0.8,0.6-1.9,1.3-2.3
					C84,225.4,84.6,225.7,84.6,226.5z"/>
			</g>
		</g>
		<g>
			<path class="st1" d="M88.1,210.4L88.1,210.4v-11.3l-25.3,0l-8.7-5.1c-2-1.2-5.5-1-7.8,0.3l-8.2,4.7l-25.3,0v11.6
				c-0.1,0.8,0.4,1.5,1.3,2.1l32.7,18.9c2,1.2,5.5,1,7.8-0.3l31.6-18.2C87.5,212.4,88.2,211.4,88.1,210.4z"/>
			<path class="st1" d="M50.4,193.3c-1.5,0-3,0.4-4.2,1.1l-8.2,4.7l-25.3,0v11.6c-0.1,0.8,0.4,1.5,1.3,2.1l32.7,18.9
				c1,0.6,2.3,0.8,3.6,0.8V193.3z"/>
			<path class="st2" d="M15.6,199.1l-2.9,0v11.6c-0.1,0.8,0.4,1.5,1.3,2.1l1.5,0.9V199.1z"/>
			<path class="st2" d="M47.3,232c1.7,0.7,4.2,0.7,6.3-0.1v-13.2h-6.3V232z"/>
			<path class="st0" d="M46.8,220.1L14,201.2c-2-1.2-1.8-3.2,0.6-4.5l31.6-18.2c2.3-1.3,5.8-1.5,7.8-0.3L86.8,197
				c2,1.2,1.8,3.2-0.6,4.5l-31.6,18.2C52.3,221.2,48.8,221.3,46.8,220.1z"/>
			<path class="st2" d="M47.4,216.7l-27.4-15.8c-1.7-1-1.5-2.7,0.5-3.8l26.5-15.3c1.9-1.1,4.9-1.2,6.6-0.3l27.4,15.8
				c1.7,1,1.5,2.7-0.5,3.8l-26.5,15.3C52,217.6,49,217.7,47.4,216.7z"/>
			<g>
				<path class="st0" d="M76.1,213.4c0,0.8-0.6,1.9-1.3,2.3c-0.7,0.4-1.3,0.1-1.3-0.8c0-0.8,0.6-1.9,1.3-2.3
					C75.5,212.2,76.1,212.6,76.1,213.4z"/>
				<path class="st0" d="M80.3,211c0,0.8-0.6,1.9-1.3,2.3c-0.7,0.4-1.3,0.1-1.3-0.8c0-0.8,0.6-1.9,1.3-2.3
					C79.7,209.8,80.3,210.1,80.3,211z"/>
				<path class="st0" d="M84.6,208.5c0,0.8-0.6,1.9-1.3,2.3c-0.7,0.4-1.3,0.1-1.3-0.8c0-0.8,0.6-1.9,1.3-2.3
					C84,207.3,84.6,207.7,84.6,208.5z"/>
			</g>
		</g>
		<g>
			<path class="st1" d="M88.1,192.4L88.1,192.4v-11.3l-25.3,0L54,176c-2-1.2-5.5-1-7.8,0.3l-8.2,4.7l-25.3,0v11.6
				c-0.1,0.8,0.4,1.5,1.3,2.1l32.7,18.9c2,1.2,5.5,1,7.8-0.3l31.6-18.2C87.5,194.3,88.2,193.3,88.1,192.4z"/>
			<path class="st1" d="M50.4,175.3c-1.5,0-3,0.4-4.2,1.1l-8.2,4.7l-25.3,0v11.6c-0.1,0.8,0.4,1.5,1.3,2.1l32.7,18.9
				c1,0.6,2.3,0.8,3.6,0.8V175.3z"/>
			<path class="st2" d="M15.6,181.1l-2.9,0v11.6c-0.1,0.8,0.4,1.5,1.3,2.1l1.5,0.9V181.1z"/>
			<path class="st2" d="M47.3,213.9c1.7,0.7,4.2,0.7,6.3-0.1v-13.2h-6.3V213.9z"/>
			<path class="st0" d="M46.8,202.1L14,183.2c-2-1.2-1.8-3.2,0.6-4.5l31.6-18.2c2.3-1.3,5.8-1.5,7.8-0.3L86.8,179
				c2,1.2,1.8,3.2-0.6,4.5l-31.6,18.2C52.3,203.1,48.8,203.3,46.8,202.1z"/>
			<path class="st3" d="M86.2,181.3l-31.6,18.2c-2.3,1.3-5.8,1.5-7.8,0.3L14,181c-0.4-0.3-0.8-0.6-1-0.9c-0.7,1.1-0.4,2.3,1,3.1
				l32.7,18.9c2,1.2,5.5,1,7.8-0.3l31.6-18.2c1.8-1,2.3-2.5,1.6-3.6C87.4,180.4,86.9,180.9,86.2,181.3z"/>
			<g>
				<path class="st0" d="M76.1,195.4c0,0.8-0.6,1.9-1.3,2.3c-0.7,0.4-1.3,0.1-1.3-0.8c0-0.8,0.6-1.9,1.3-2.3
					C75.5,194.2,76.1,194.5,76.1,195.4z"/>
				<path class="st0" d="M80.3,192.9c0,0.8-0.6,1.9-1.3,2.3c-0.7,0.4-1.3,0.1-1.3-0.8c0-0.8,0.6-1.9,1.3-2.3
					C79.7,191.7,80.3,192.1,80.3,192.9z"/>
				<path class="st0" d="M84.6,190.5c0,0.8-0.6,1.9-1.3,2.3c-0.7,0.4-1.3,0.1-1.3-0.8c0-0.8,0.6-1.9,1.3-2.3
					C84,189.3,84.6,189.6,84.6,190.5z"/>
			</g>
			<g>
				<path class="st2" d="M48.7,190.4l-15.3-8.8c-0.9-0.5-0.8-1.5,0.3-2.1l14.8-8.5c1.1-0.6,2.7-0.7,3.7-0.2l15.3,8.8
					c0.9,0.5,0.8,1.5-0.3,2.1l-14.8,8.5C51.3,190.9,49.6,190.9,48.7,190.4z"/>
				<path class="st0" d="M50.2,183l-2.1-1.2c-0.1-0.1-0.1-0.2,0-0.3l2-1.2c0.2-0.1,0.4-0.1,0.5,0l2.1,1.2c0.1,0.1,0.1,0.2,0,0.3
					l-2,1.2C50.5,183,50.3,183.1,50.2,183z"/>
				<path class="st2" d="M33.4,181.5L33.4,181.5c0.1,0,0.2-0.1,0.3-0.1l14.8-8.5c1.1-0.6,2.7-0.7,3.7-0.2l15.3,8.8
					c0.9-0.6,0.9-1.5,0-2l-15.3-8.8c-0.9-0.5-2.6-0.5-3.7,0.2l-14.8,8.5C32.6,180.1,32.4,181,33.4,181.5z"/>
			</g>
		</g>
		<g>
			<path class="st0" d="M44.7,205.4c0,0.6-0.4,0.8-0.9,0.5c-0.5-0.3-0.9-1-0.9-1.5c0-0.6,0.4-0.8,0.9-0.5
				C44.3,204.1,44.7,204.8,44.7,205.4z"/>
			<path class="st0" d="M41.9,203.8c0,0.6-0.4,0.8-0.9,0.5c-0.5-0.3-0.9-1-0.9-1.5c0-0.6,0.4-0.8,0.9-0.5
				C41.5,202.6,41.9,203.2,41.9,203.8z"/>
			<path class="st0" d="M44.7,208.7c0,0.6-0.4,0.8-0.9,0.5c-0.5-0.3-0.9-1-0.9-1.5s0.4-0.8,0.9-0.5
				C44.3,207.5,44.7,208.2,44.7,208.7z"/>
			<path class="st0" d="M41.9,207.1c0,0.6-0.4,0.8-0.9,0.5c-0.5-0.3-0.9-1-0.9-1.5c0-0.6,0.4-0.8,0.9-0.5
				C41.5,205.9,41.9,206.6,41.9,207.1z"/>
		</g>
		<g>
			<path class="st0" d="M44.7,223.3c0,0.6-0.4,0.8-0.9,0.5c-0.5-0.3-0.9-1-0.9-1.5c0-0.6,0.4-0.8,0.9-0.5
				C44.3,222.1,44.7,222.8,44.7,223.3z"/>
			<path class="st0" d="M41.9,221.8c0,0.6-0.4,0.8-0.9,0.5c-0.5-0.3-0.9-1-0.9-1.5c0-0.6,0.4-0.8,0.9-0.5
				C41.5,220.5,41.9,221.2,41.9,221.8z"/>
			<path class="st0" d="M44.7,226.7c0,0.6-0.4,0.8-0.9,0.5c-0.5-0.3-0.9-1-0.9-1.5s0.4-0.8,0.9-0.5
				C44.3,225.4,44.7,226.1,44.7,226.7z"/>
			<path class="st0" d="M41.9,225.1c0,0.6-0.4,0.8-0.9,0.5c-0.5-0.3-0.9-1-0.9-1.5c0-0.6,0.4-0.8,0.9-0.5
				C41.5,223.8,41.9,224.5,41.9,225.1z"/>
		</g>
		<g>
			<path class="st0" d="M44.7,241.3c0,0.6-0.4,0.8-0.9,0.5c-0.5-0.3-0.9-1-0.9-1.5c0-0.6,0.4-0.8,0.9-0.5
				C44.3,240,44.7,240.7,44.7,241.3z"/>
			<path class="st0" d="M41.9,239.7c0,0.6-0.4,0.8-0.9,0.5c-0.5-0.3-0.9-1-0.9-1.5c0-0.6,0.4-0.8,0.9-0.5
				C41.5,238.5,41.9,239.1,41.9,239.7z"/>
			<path class="st0" d="M44.7,244.6c0,0.6-0.4,0.8-0.9,0.5c-0.5-0.3-0.9-1-0.9-1.5c0-0.6,0.4-0.8,0.9-0.5
				C44.3,243.4,44.7,244.1,44.7,244.6z"/>
			<path class="st0" d="M41.9,243c0,0.6-0.4,0.8-0.9,0.5c-0.5-0.3-0.9-1-0.9-1.5c0-0.6,0.4-0.8,0.9-0.5
				C41.5,241.8,41.9,242.5,41.9,243z"/>
		</g>
	</g>
	<path class="st0" d="M50.8,271.8c-0.9,0-1.9-0.2-2.7-0.7l-16.5-9.6c-0.6-0.3-0.9-0.9-0.9-1.6s0.3-1.2,0.9-1.6l10.8-6.3l0.8,1.4
		l-10.8,6.3c-0.1,0-0.1,0.1-0.1,0.2c0,0.1,0,0.1,0.1,0.2l16.5,9.6c1.2,0.7,2.6,0.7,3.8,0L85,251.3c1.7-0.9,3.7-0.9,5.4,0l27.1,15.6
		c1.2,0.7,2.6,0.7,3.8,0l13-7.5l0.8,1.4l-13,7.5c-1.7,1-3.7,1-5.4,0l-27-15.6c-1.2-0.7-2.6-0.7-3.8,0l-32.3,18.4
		C52.7,271.6,51.7,271.8,50.8,271.8z"/>
	<g>
		<path class="st0" d="M194,332.7l-26.1-15.1c-1.6-0.9-1.4-2.5,0.4-3.6l25.2-14.6c1.9-1.1,4.7-1.2,6.3-0.3l26.1,15.1
			c1.6,0.9,1.4,2.5-0.4,3.6l-25.2,14.6C198.5,333.5,195.7,333.6,194,332.7z"/>
	</g>
	<path class="st8" d="M146.7,74.4c0,0.6-0.4,0.8-0.9,0.5c-0.5-0.3-0.9-1-0.9-1.5s0.4-0.8,0.9-0.5C146.3,73.2,146.7,73.9,146.7,74.4z
		"/>
	<path class="st8" d="M154.5,79.2c0,0.6-0.4,0.8-0.9,0.5c-0.5-0.3-0.9-1-0.9-1.5s0.4-0.8,0.9-0.5C154.1,77.9,154.5,78.6,154.5,79.2z
		"/>
	<path class="st8" d="M162.3,83.9c0,0.6-0.4,0.8-0.9,0.5c-0.5-0.3-0.9-1-0.9-1.5s0.4-0.8,0.9-0.5C161.9,82.7,162.3,83.4,162.3,83.9z
		"/>
	<path class="st8" d="M170.2,88.7c0,0.6-0.4,0.8-0.9,0.5c-0.5-0.3-0.9-1-0.9-1.5s0.4-0.8,0.9-0.5C169.8,87.4,170.2,88.1,170.2,88.7z
		"/>
</g>
<g id="XMLID_375_">
	<g>
		<g class="st9">
			<g class="st9">
				<defs>
					<path id="SVGID_1_" class="st9" d="M121.3,42.6l2.1-1.2c0,10.2,7.2,22.7,16.1,27.8l-2.1,1.2C128.5,65.3,121.3,52.8,121.3,42.6z
						"/>
				</defs>
				<clipPath id="SVGID_2_">
					<use xlink:href="#SVGID_1_"  style="overflow:visible;"/>
				</clipPath>
				<g class="st10">
					<path class="st6" d="M121.3,42.6l2.1-1.2c0,0,0,0.1,0,0.1l-2.1,1.2C121.3,42.7,121.3,42.6,121.3,42.6"/>
					<path class="st6" d="M121.3,42.7l2.1-1.2c0,0.5,0,1,0.1,1.6l-2.1,1.2C121.3,43.8,121.3,43.2,121.3,42.7"/>
					<path class="st6" d="M121.4,44.3l2.1-1.2c0,0.5,0.1,1.1,0.2,1.6l-2.1,1.2C121.5,45.4,121.4,44.8,121.4,44.3"/>
					<path class="st6" d="M121.5,45.9l2.1-1.2c0.1,0.6,0.2,1.1,0.3,1.7l-2.1,1.2C121.7,47,121.6,46.5,121.5,45.9"/>
					<path class="st6" d="M121.8,47.6l2.1-1.2c0.1,0.6,0.3,1.2,0.4,1.8l-2.1,1.2C122.1,48.8,122,48.2,121.8,47.6"/>
					<path class="st6" d="M122.3,49.4l2.1-1.2c0.2,0.7,0.4,1.4,0.6,2.1l-2.1,1.2C122.6,50.8,122.4,50.1,122.3,49.4"/>
					<path class="st6" d="M122.9,51.5l2.1-1.2c0.3,0.8,0.6,1.7,0.9,2.5l-2.1,1.2C123.5,53.1,123.1,52.3,122.9,51.5"/>
					<path class="st6" d="M123.8,54l2.1-1.2c0.6,1.4,1.3,2.8,2,4.1l-2.1,1.2C125.1,56.7,124.4,55.4,123.8,54"/>
					<path class="st6" d="M125.8,58.1l2.1-1.2c0.8,1.5,1.8,2.9,2.8,4.3l-2.1,1.2C127.6,61,126.7,59.6,125.8,58.1"/>
					<path class="st6" d="M128.6,62.4l2.1-1.2c0.9,1.2,1.9,2.3,2.9,3.4l-2.1,1.2C130.5,64.7,129.5,63.6,128.6,62.4"/>
					<path class="st6" d="M131.5,65.7l2.1-1.2c0.6,0.6,1.2,1.2,1.8,1.8l-2.1,1.2C132.7,66.9,132.1,66.3,131.5,65.7"/>
					<path class="st6" d="M133.3,67.5l2.1-1.2c0.5,0.5,1,0.9,1.6,1.3l-2.1,1.2C134.4,68.4,133.8,67.9,133.3,67.5"/>
					<path class="st6" d="M134.9,68.8l2.1-1.2c0.5,0.4,1,0.7,1.4,1l-2.1,1.2C135.8,69.5,135.4,69.1,134.9,68.8"/>
					<path class="st6" d="M136.3,69.8l2.1-1.2c0.4,0.2,0.7,0.4,1.1,0.7l-2.1,1.2C137,70.2,136.7,70,136.3,69.8"/>
				</g>
			</g>
			<g class="st9">
				<defs>
					<path id="SVGID_3_" class="st9" d="M135.6,43.9l2.1-1.2c0,5,3.5,11,7.8,13.5l-2.1,1.2C139.1,55,135.6,48.9,135.6,43.9z"/>
				</defs>
				<clipPath id="SVGID_4_">
					<use xlink:href="#SVGID_3_"  style="overflow:visible;"/>
				</clipPath>
				<g class="st11">
					<path class="st6" d="M135.6,43.9l2.1-1.2c0,0,0,0,0,0.1L135.6,43.9C135.6,44,135.6,44,135.6,43.9"/>
					<path class="st6" d="M135.6,44l2.1-1.2c0,0.3,0,0.5,0,0.8l-2.1,1.2C135.7,44.5,135.7,44.3,135.6,44"/>
					<path class="st6" d="M135.7,44.8l2.1-1.2c0,0.3,0,0.5,0.1,0.8l-2.1,1.2C135.7,45.3,135.7,45,135.7,44.8"/>
					<path class="st6" d="M135.8,45.6l2.1-1.2c0,0.3,0.1,0.5,0.1,0.8l-2.1,1.2C135.8,46.1,135.8,45.8,135.8,45.6"/>
					<path class="st6" d="M135.9,46.4l2.1-1.2c0.1,0.3,0.1,0.6,0.2,0.9l-2.1,1.2C136,47,136,46.7,135.9,46.4"/>
					<path class="st6" d="M136.1,47.3l2.1-1.2c0.1,0.3,0.2,0.7,0.3,1l-2.1,1.2C136.3,47.9,136.2,47.6,136.1,47.3"/>
					<path class="st6" d="M136.4,48.3l2.1-1.2c0.1,0.4,0.3,0.8,0.5,1.2l-2.1,1.2C136.7,49.1,136.5,48.7,136.4,48.3"/>
					<path class="st6" d="M136.9,49.5l2.1-1.2c0.3,0.7,0.6,1.3,1,2l-2.1,1.2C137.5,50.8,137.1,50.1,136.9,49.5"/>
					<path class="st6" d="M137.8,51.5l2.1-1.2c0.4,0.7,0.9,1.4,1.4,2.1l-2.1,1.2C138.7,52.9,138.2,52.2,137.8,51.5"/>
					<path class="st6" d="M139.2,53.5l2.1-1.2c0.4,0.6,0.9,1.1,1.4,1.6l-2.1,1.2C140.1,54.7,139.6,54.1,139.2,53.5"/>
					<path class="st6" d="M140.6,55.2l2.1-1.2c0.3,0.3,0.6,0.6,0.9,0.9l-2.1,1.2C141.2,55.8,140.9,55.5,140.6,55.2"/>
					<path class="st6" d="M141.5,56l2.1-1.2c0.2,0.2,0.5,0.4,0.8,0.6l-2.1,1.2C142,56.5,141.7,56.3,141.5,56"/>
					<path class="st6" d="M142.2,56.7l2.1-1.2c0.2,0.2,0.5,0.3,0.7,0.5l-2.1,1.2C142.7,57,142.5,56.8,142.2,56.7"/>
					<path class="st6" d="M142.9,57.1l2.1-1.2c0.2,0.1,0.3,0.2,0.5,0.3l-2.1,1.2C143.3,57.4,143.1,57.3,142.9,57.1"/>
				</g>
			</g>
			<g>
				<polygon class="st6" points="137.4,70.4 139.5,69.2 164.6,83.7 162.5,84.9 				"/>
			</g>
			<g>
				<polygon class="st6" points="121.4,13.7 123.5,12.5 123.4,41.4 121.3,42.6 				"/>
			</g>
			<g>
				<polygon class="st6" points="143.5,57.5 145.6,56.2 158.7,63.8 156.6,65 				"/>
			</g>
			<g>
				<polygon class="st6" points="135.7,28.9 137.8,27.7 137.8,42.7 135.6,43.9 				"/>
			</g>
			<g class="st9">
				<defs>
					<path id="SVGID_5_" class="st9" d="M176.1,84.8l-2.1,1.2c-2.9,1.7-7,1.5-11.5-1.1l2.1-1.2C169.1,86.3,173.2,86.5,176.1,84.8z"
						/>
				</defs>
				<clipPath id="SVGID_6_">
					<use xlink:href="#SVGID_5_"  style="overflow:visible;"/>
				</clipPath>
				<g class="st12">
					<path class="st6" d="M162.5,84.9l2.1-1.2c0.1,0.1,0.2,0.1,0.3,0.2l-2.1,1.2C162.7,85.1,162.6,85,162.5,84.9"/>
					<path class="st6" d="M162.8,85.1l2.1-1.2c0.5,0.2,0.9,0.5,1.3,0.7l-2.1,1.2C163.7,85.6,163.3,85.4,162.8,85.1"/>
					<path class="st6" d="M164.2,85.8l2.1-1.2c0.4,0.2,0.9,0.4,1.3,0.5l-2.1,1.2C165.1,86.2,164.6,86,164.2,85.8"/>
					<path class="st6" d="M165.5,86.3l2.1-1.2c0.5,0.2,0.9,0.3,1.3,0.4l-2.1,1.2C166.4,86.6,166,86.5,165.5,86.3"/>
					<path class="st6" d="M166.8,86.8l2.1-1.2c0.5,0.1,0.9,0.2,1.4,0.3l-2.1,1.2C167.8,87,167.3,86.9,166.8,86.8"/>
					<path class="st6" d="M168.2,87l2.1-1.2c0.5,0.1,1,0.1,1.5,0.1l-2.1,1.2C169.2,87.1,168.7,87.1,168.2,87"/>
					<path class="st6" d="M169.7,87.1l2.1-1.2c0.6,0,1.2-0.1,1.8-0.2l-2.1,1.2C170.9,87.1,170.3,87.1,169.7,87.1"/>
					<path class="st6" d="M171.5,87l2.1-1.2c0.9-0.2,1.7-0.5,2.5-0.9l-2.1,1.2C173.2,86.5,172.4,86.8,171.5,87"/>
				</g>
			</g>
			<g class="st9">
				<defs>
					<path id="SVGID_7_" class="st9" d="M164.2,64.3l-2.1,1.2c-1.4,0.8-3.4,0.7-5.6-0.5l2.1-1.2C160.8,65.1,162.8,65.2,164.2,64.3z"
						/>
				</defs>
				<clipPath id="SVGID_8_">
					<use xlink:href="#SVGID_7_"  style="overflow:visible;"/>
				</clipPath>
				<g class="st13">
					<path class="st6" d="M156.6,65l2.1-1.2c0.1,0,0.1,0.1,0.2,0.1l-2.1,1.2C156.7,65.1,156.6,65.1,156.6,65"/>
					<path class="st6" d="M156.7,65.1l2.1-1.2c0.2,0.1,0.4,0.2,0.6,0.3l-2.1,1.2C157.2,65.4,156.9,65.2,156.7,65.1"/>
					<path class="st6" d="M157.4,65.5l2.1-1.2c0.2,0.1,0.4,0.2,0.6,0.3l-2.1,1.2C157.8,65.6,157.6,65.5,157.4,65.5"/>
					<path class="st6" d="M158,65.7l2.1-1.2c0.2,0.1,0.4,0.1,0.6,0.2l-2.1,1.2C158.4,65.9,158.2,65.8,158,65.7"/>
					<path class="st6" d="M158.7,65.9l2.1-1.2c0.2,0.1,0.5,0.1,0.7,0.1l-2.1,1.2C159.1,66,158.9,66,158.7,65.9"/>
					<path class="st6" d="M159.3,66l2.1-1.2c0.2,0,0.5,0.1,0.7,0.1l-2.1,1.2C159.8,66.1,159.6,66.1,159.3,66"/>
					<path class="st6" d="M160.1,66.1l2.1-1.2c0.3,0,0.6,0,0.9-0.1l-2.1,1.2C160.6,66.1,160.4,66.1,160.1,66.1"/>
					<path class="st6" d="M160.9,66l2.1-1.2c0.4-0.1,0.8-0.2,1.2-0.4l-2.1,1.2C161.8,65.8,161.4,65.9,160.9,66"/>
				</g>
			</g>
			<g class="st9">
				<defs>
					<path id="SVGID_9_" class="st9" d="M145.8,37.5l2.1-1.2c-1.1,0.6-1.7,1.9-1.7,3.8c0,3.8,2.7,8.4,5.9,10.3l-2.1,1.2
						c-3.3-1.9-6-6.5-5.9-10.3C144.1,39.4,144.8,38.1,145.8,37.5z"/>
				</defs>
				<clipPath id="SVGID_10_">
					<use xlink:href="#SVGID_9_"  style="overflow:visible;"/>
				</clipPath>
				<g class="st14">
					<path class="st6" d="M145.8,37.5l2.1-1.2c-0.5,0.3-1,0.8-1.3,1.4l-2.1,1.2C144.9,38.2,145.3,37.8,145.8,37.5"/>
					<path class="st6" d="M144.6,38.9l2.1-1.2c-0.1,0.2-0.2,0.4-0.2,0.7l-2.1,1.2C144.4,39.3,144.5,39.1,144.6,38.9"/>
					<path class="st6" d="M144.3,39.6l2.1-1.2c-0.1,0.2-0.1,0.4-0.1,0.6l-2.1,1.2C144.2,39.9,144.3,39.7,144.3,39.6"/>
					<path class="st6" d="M144.2,40.2l2.1-1.2c0,0.2-0.1,0.4-0.1,0.6l-2.1,1.2C144.1,40.5,144.2,40.3,144.2,40.2"/>
					<path class="st6" d="M144.1,40.7l2.1-1.2c0,0.2,0,0.4,0,0.5c0,0,0,0,0,0l-2.1,1.2c0,0,0,0,0,0
						C144.1,41.1,144.1,40.9,144.1,40.7"/>
					<path class="st6" d="M144.1,41.3l2.1-1.2c0,0.2,0,0.4,0,0.6l-2.1,1.2C144.1,41.7,144.1,41.5,144.1,41.3"/>
					<path class="st6" d="M144.1,41.9l2.1-1.2c0,0.2,0,0.4,0.1,0.6l-2.1,1.2C144.1,42.3,144.1,42.1,144.1,41.9"/>
					<path class="st6" d="M144.2,42.5l2.1-1.2c0,0.2,0.1,0.4,0.1,0.6l-2.1,1.2C144.2,42.9,144.2,42.7,144.2,42.5"/>
					<path class="st6" d="M144.3,43.1l2.1-1.2c0,0.2,0.1,0.5,0.2,0.7l-2.1,1.2C144.4,43.6,144.3,43.3,144.3,43.1"/>
					<path class="st6" d="M144.4,43.8l2.1-1.2c0.1,0.3,0.1,0.5,0.2,0.8l-2.1,1.2C144.6,44.3,144.5,44.1,144.4,43.8"/>
					<path class="st6" d="M144.7,44.6l2.1-1.2c0.1,0.3,0.2,0.6,0.3,0.9l-2.1,1.2C144.9,45.2,144.8,44.9,144.7,44.6"/>
					<path class="st6" d="M145,45.5l2.1-1.2c0.2,0.5,0.5,1,0.7,1.5l-2.1,1.2C145.5,46.5,145.2,46,145,45.5"/>
					<path class="st6" d="M145.8,47l2.1-1.2c0.3,0.6,0.7,1.1,1,1.6l-2.1,1.2C146.4,48.1,146.1,47.6,145.8,47"/>
					<path class="st6" d="M146.8,48.6l2.1-1.2c0.3,0.4,0.7,0.9,1.1,1.2l-2.1,1.2C147.5,49.4,147.1,49,146.8,48.6"/>
					<path class="st6" d="M147.8,49.8l2.1-1.2c0.2,0.2,0.5,0.4,0.7,0.7l-2.1,1.2C148.3,50.3,148.1,50.1,147.8,49.8"/>
					<path class="st6" d="M148.5,50.5l2.1-1.2c0.2,0.2,0.4,0.3,0.6,0.5l-2.1,1.2C148.9,50.8,148.7,50.6,148.5,50.5"/>
					<path class="st6" d="M149.1,51l2.1-1.2c0.2,0.1,0.4,0.3,0.5,0.4l-2.1,1.2C149.5,51.2,149.3,51.1,149.1,51"/>
					<path class="st6" d="M149.6,51.3l2.1-1.2c0.1,0.1,0.3,0.2,0.4,0.2l-2.1,1.2C149.9,51.5,149.8,51.4,149.6,51.3"/>
				</g>
			</g>
			<g class="st9">
				<defs>
					<path id="SVGID_11_" class="st9" d="M156.4,50.8l-2.1,1.2c-1.1,0.6-2.6,0.5-4.2-0.4l2.1-1.2C153.8,51.3,155.3,51.4,156.4,50.8z
						"/>
				</defs>
				<clipPath id="SVGID_12_">
					<use xlink:href="#SVGID_11_"  style="overflow:visible;"/>
				</clipPath>
				<g class="st15">
					<path class="st6" d="M150,51.6l2.1-1.2c0,0,0.1,0,0.1,0.1l-2.1,1.2C150.1,51.6,150.1,51.6,150,51.6"/>
					<path class="st6" d="M150.2,51.6l2.1-1.2c0.2,0.1,0.3,0.2,0.5,0.3l-2.1,1.2C150.5,51.8,150.3,51.7,150.2,51.6"/>
					<path class="st6" d="M150.7,51.9l2.1-1.2c0.2,0.1,0.3,0.1,0.5,0.2l-2.1,1.2C151,52,150.8,52,150.7,51.9"/>
					<path class="st6" d="M151.1,52.1l2.1-1.2c0.2,0.1,0.3,0.1,0.5,0.2l-2.1,1.2C151.5,52.2,151.3,52.2,151.1,52.1"/>
					<path class="st6" d="M151.6,52.2l2.1-1.2c0.2,0,0.3,0.1,0.5,0.1l-2.1,1.2C152,52.3,151.8,52.3,151.6,52.2"/>
					<path class="st6" d="M152.1,52.3l2.1-1.2c0.2,0,0.4,0,0.6,0l-2.1,1.2C152.5,52.4,152.3,52.4,152.1,52.3"/>
					<path class="st6" d="M152.7,52.4l2.1-1.2c0.2,0,0.4,0,0.7-0.1l-2.1,1.2C153.1,52.4,152.9,52.4,152.7,52.4"/>
					<path class="st6" d="M153.4,52.3l2.1-1.2c0.3-0.1,0.6-0.2,0.9-0.3l-2.1,1.2C154,52.1,153.7,52.3,153.4,52.3"/>
				</g>
			</g>
			<g class="st9">
				<defs>
					<path id="SVGID_13_" class="st9" d="M138,23.9l2.1-1.2c-1.4,0.8-2.3,2.5-2.3,5l-2.1,1.2C135.7,26.4,136.6,24.7,138,23.9z"/>
				</defs>
				<clipPath id="SVGID_14_">
					<use xlink:href="#SVGID_13_"  style="overflow:visible;"/>
				</clipPath>
				<g class="st16">
					<path class="st6" d="M138,23.9l2.1-1.2c-0.7,0.4-1.3,1-1.7,1.9l-2.1,1.2C136.7,24.9,137.3,24.3,138,23.9"/>
					<path class="st6" d="M136.3,25.8l2.1-1.2c-0.1,0.3-0.2,0.6-0.3,0.9l-2.1,1.2C136.1,26.3,136.2,26,136.3,25.8"/>
					<path class="st6" d="M136,26.6l2.1-1.2c-0.1,0.3-0.1,0.5-0.2,0.8l-2.1,1.2C135.9,27.1,135.9,26.9,136,26.6"/>
					<path class="st6" d="M135.8,27.4l2.1-1.2c0,0.2-0.1,0.5-0.1,0.8l-2.1,1.2C135.7,27.9,135.8,27.7,135.8,27.4"/>
					<path class="st6" d="M135.7,28.2l2.1-1.2c0,0.2,0,0.5,0,0.7l-2.1,1.2C135.7,28.6,135.7,28.4,135.7,28.2"/>
				</g>
			</g>
			<g class="st9">
				<defs>
					<path id="SVGID_15_" class="st9" d="M126.1,3.4l2.1-1.2c-2.9,1.7-4.7,5.3-4.7,10.3l-2.1,1.2C121.4,8.6,123.2,5.1,126.1,3.4z"/>
				</defs>
				<clipPath id="SVGID_16_">
					<use xlink:href="#SVGID_15_"  style="overflow:visible;"/>
				</clipPath>
				<g class="st17">
					<path class="st6" d="M126.1,3.4l2.1-1.2c-1.4,0.8-2.6,2.1-3.4,3.9l-2.1,1.2C123.5,5.5,124.7,4.2,126.1,3.4"/>
					<path class="st6" d="M122.7,7.3l2.1-1.2c-0.3,0.6-0.5,1.2-0.7,1.8L122,9.1C122.2,8.4,122.4,7.8,122.7,7.3"/>
					<path class="st6" d="M122,9.1l2.1-1.2c-0.1,0.5-0.3,1.1-0.4,1.6l-2.1,1.2C121.7,10.1,121.9,9.6,122,9.1"/>
					<path class="st6" d="M121.6,10.7l2.1-1.2c-0.1,0.5-0.1,1-0.2,1.6l-2.1,1.2C121.5,11.7,121.6,11.2,121.6,10.7"/>
					<path class="st6" d="M121.5,12.3l2.1-1.2c0,0.5-0.1,1-0.1,1.5l-2.1,1.2C121.4,13.2,121.4,12.7,121.5,12.3"/>
				</g>
			</g>
			<g class="st9">
				<defs>
					<path id="SVGID_17_" class="st9" d="M144,34.3l2.1-1.2c1.6-0.9,3.7-0.8,6.1,0.6l-2.1,1.2C147.7,33.5,145.6,33.4,144,34.3z"/>
				</defs>
				<clipPath id="SVGID_18_">
					<use xlink:href="#SVGID_17_"  style="overflow:visible;"/>
				</clipPath>
				<g class="st18">
					<path class="st6" d="M144,34.3l2.1-1.2c0.4-0.2,0.8-0.4,1.3-0.5l-2.1,1.2C144.8,33.9,144.4,34.1,144,34.3"/>
					<path class="st6" d="M145.3,33.8l2.1-1.2c0.3-0.1,0.6-0.1,1-0.1l-2.1,1.2C145.9,33.7,145.6,33.7,145.3,33.8"/>
					<path class="st6" d="M146.3,33.7l2.1-1.2c0.3,0,0.5,0,0.8,0.1l-2.1,1.2C146.8,33.7,146.5,33.7,146.3,33.7"/>
					<path class="st6" d="M147.1,33.8l2.1-1.2c0.2,0,0.5,0.1,0.7,0.1l-2.1,1.2C147.5,33.9,147.3,33.8,147.1,33.8"/>
					<path class="st6" d="M147.8,33.9l2.1-1.2c0.2,0.1,0.5,0.1,0.7,0.2l-2.1,1.2C148.3,34.1,148,34,147.8,33.9"/>
					<path class="st6" d="M148.5,34.1l2.1-1.2c0.2,0.1,0.5,0.2,0.7,0.3l-2.1,1.2C149,34.3,148.7,34.2,148.5,34.1"/>
					<path class="st6" d="M149.2,34.4l2.1-1.2c0.2,0.1,0.5,0.2,0.7,0.4l-2.1,1.2C149.7,34.7,149.4,34.5,149.2,34.4"/>
					<path class="st6" d="M149.9,34.8l2.1-1.2c0.1,0,0.1,0.1,0.2,0.1l-2.1,1.2C150,34.9,150,34.8,149.9,34.8"/>
				</g>
			</g>
			<g class="st9">
				<defs>
					<path id="SVGID_19_" class="st9" d="M166,67.4l-2.1,1.2c1.9-1.1,3-3.4,3-6.6l2.1-1.2C169.1,64.1,167.9,66.3,166,67.4z"/>
				</defs>
				<clipPath id="SVGID_20_">
					<use xlink:href="#SVGID_19_"  style="overflow:visible;"/>
				</clipPath>
				<g class="st19">
					<path class="st6" d="M166.9,62l2.1-1.2c0,0.3,0,0.6,0,0.9l-2.1,1.2C166.9,62.7,166.9,62.3,166.9,62"/>
					<path class="st6" d="M166.9,63l2.1-1.2c0,0.3-0.1,0.7-0.1,1l-2.1,1.2C166.8,63.6,166.9,63.3,166.9,63"/>
					<path class="st6" d="M166.8,64l2.1-1.2c-0.1,0.4-0.1,0.7-0.2,1.1l-2.1,1.2C166.7,64.7,166.7,64.3,166.8,64"/>
					<path class="st6" d="M166.6,65l2.1-1.2c-0.1,0.4-0.3,0.8-0.4,1.2l-2.1,1.2C166.3,65.8,166.4,65.4,166.6,65"/>
					<path class="st6" d="M166.1,66.2l2.1-1.2c-0.5,1.1-1.3,2-2.2,2.5l-2.1,1.2C164.9,68.1,165.6,67.3,166.1,66.2"/>
				</g>
			</g>
			<g class="st9">
				<defs>
					<path id="SVGID_21_" class="st9" d="M136.2,20.8l2.1-1.2c1.9-1.1,4.5-0.9,7.4,0.7l-2.1,1.2C140.7,19.8,138.1,19.7,136.2,20.8z"
						/>
				</defs>
				<clipPath id="SVGID_22_">
					<use xlink:href="#SVGID_21_"  style="overflow:visible;"/>
				</clipPath>
				<g class="st20">
					<path class="st6" d="M136.2,20.8l2.1-1.2c0.5-0.3,1-0.5,1.6-0.6l-2.1,1.2C137.2,20.3,136.7,20.5,136.2,20.8"/>
					<path class="st6" d="M137.8,20.2l2.1-1.2c0.4-0.1,0.8-0.1,1.1-0.1l-2.1,1.2C138.5,20.1,138.1,20.1,137.8,20.2"/>
					<path class="st6" d="M138.9,20.1l2.1-1.2c0.3,0,0.6,0,1,0.1l-2.1,1.2C139.6,20.1,139.2,20.1,138.9,20.1"/>
					<path class="st6" d="M139.9,20.2l2.1-1.2c0.3,0,0.6,0.1,0.9,0.2l-2.1,1.2C140.5,20.3,140.2,20.2,139.9,20.2"/>
					<path class="st6" d="M140.8,20.3l2.1-1.2c0.3,0.1,0.6,0.2,0.9,0.3l-2.1,1.2C141.3,20.5,141.1,20.4,140.8,20.3"/>
					<path class="st6" d="M141.6,20.6l2.1-1.2c0.3,0.1,0.6,0.2,0.8,0.3l-2.1,1.2C142.2,20.8,141.9,20.7,141.6,20.6"/>
					<path class="st6" d="M142.5,20.9l2.1-1.2c0.3,0.1,0.6,0.3,0.9,0.4l-2.1,1.2C143.1,21.2,142.8,21.1,142.5,20.9"/>
					<path class="st6" d="M143.3,21.4l2.1-1.2c0.1,0,0.1,0.1,0.2,0.1l-2.1,1.2C143.5,21.5,143.4,21.4,143.3,21.4"/>
				</g>
			</g>
			<g class="st9">
				<defs>
					<path id="SVGID_23_" class="st9" d="M158.2,53.9l-2.1,1.2c1.5-0.9,2.5-2.8,2.5-5.5c0-5.4-3.8-12-8.5-14.8l2.1-1.2
						c4.7,2.7,8.5,9.3,8.5,14.8C160.7,51.1,159.8,53,158.2,53.9z"/>
				</defs>
				<clipPath id="SVGID_24_">
					<use xlink:href="#SVGID_23_"  style="overflow:visible;"/>
				</clipPath>
				<g class="st21">
					<path class="st6" d="M150.1,34.9l2.1-1.2c0.2,0.1,0.4,0.2,0.6,0.3l-2.1,1.2C150.5,35.1,150.3,35,150.1,34.9"/>
					<path class="st6" d="M150.6,35.2l2.1-1.2c0.3,0.2,0.5,0.3,0.8,0.5l-2.1,1.2C151.2,35.6,150.9,35.4,150.6,35.2"/>
					<path class="st6" d="M151.4,35.8l2.1-1.2c0.3,0.2,0.6,0.4,0.8,0.7l-2.1,1.2C152,36.2,151.7,36,151.4,35.8"/>
					<path class="st6" d="M152.2,36.5l2.1-1.2c0.3,0.3,0.7,0.6,1,0.9l-2.1,1.2C152.9,37.1,152.6,36.7,152.2,36.5"/>
					<path class="st6" d="M153.2,37.4l2.1-1.2c0.5,0.6,1,1.2,1.5,1.8l-2.1,1.2C154.3,38.5,153.8,37.9,153.2,37.4"/>
					<path class="st6" d="M154.7,39.2l2.1-1.2c0.5,0.7,1,1.5,1.5,2.3l-2.1,1.2C155.8,40.7,155.3,39.9,154.7,39.2"/>
					<path class="st6" d="M156.2,41.4l2.1-1.2c0.4,0.7,0.8,1.4,1.1,2.2l-2.1,1.2C157,42.9,156.6,42.2,156.2,41.4"/>
					<path class="st6" d="M157.3,43.6l2.1-1.2c0.2,0.4,0.3,0.9,0.5,1.3l-2.1,1.2C157.6,44.5,157.5,44.1,157.3,43.6"/>
					<path class="st6" d="M157.8,44.9l2.1-1.2c0.1,0.4,0.2,0.7,0.3,1.1l-2.1,1.2C158,45.7,157.9,45.3,157.8,44.9"/>
					<path class="st6" d="M158.1,46l2.1-1.2c0.1,0.3,0.2,0.6,0.2,1l-2.1,1.2C158.3,46.7,158.2,46.4,158.1,46"/>
					<path class="st6" d="M158.3,47l2.1-1.2c0.1,0.3,0.1,0.6,0.2,0.9l-2.1,1.2C158.5,47.6,158.4,47.3,158.3,47"/>
					<path class="st6" d="M158.5,47.9l2.1-1.2c0,0.3,0.1,0.6,0.1,0.9l-2.1,1.2C158.6,48.5,158.5,48.2,158.5,47.9"/>
					<path class="st6" d="M158.6,48.8l2.1-1.2c0,0.3,0,0.6,0,0.8l-2.1,1.2C158.6,49.3,158.6,49,158.6,48.8"/>
					<path class="st6" d="M158.6,49.6l2.1-1.2c0,0,0,0,0,0.1c0,0.3,0,0.5,0,0.8l-2.1,1.2C158.6,50.2,158.6,49.9,158.6,49.6
						C158.6,49.6,158.6,49.6,158.6,49.6"/>
					<path class="st6" d="M158.6,50.4l2.1-1.2c0,0.3-0.1,0.6-0.1,0.8l-2.1,1.2C158.5,51,158.6,50.7,158.6,50.4"/>
					<path class="st6" d="M158.5,51.3l2.1-1.2c-0.1,0.3-0.1,0.6-0.2,0.9l-2.1,1.2C158.4,51.9,158.4,51.6,158.5,51.3"/>
					<path class="st6" d="M158.3,52.1l2.1-1.2c-0.1,0.3-0.2,0.7-0.4,1l-2.1,1.2C158.1,52.8,158.2,52.5,158.3,52.1"/>
					<path class="st6" d="M157.9,53.1l2.1-1.2c-0.4,0.9-1.1,1.6-1.8,2.1l-2.1,1.2C156.9,54.7,157.5,54,157.9,53.1"/>
				</g>
			</g>
			<g class="st9">
				<defs>
					<path id="SVGID_25_" class="st9" d="M158,36.6l2.1-1.2c0.4-0.2,1-0.2,1.6,0.2l-2.1,1.2C159,36.4,158.4,36.3,158,36.6z"/>
				</defs>
				<clipPath id="SVGID_26_">
					<use xlink:href="#SVGID_25_"  style="overflow:visible;"/>
				</clipPath>
				<g class="st22">
					<path class="st6" d="M158,36.6l2.1-1.2c0.1-0.1,0.2-0.1,0.3-0.1l-2.1,1.2C158.2,36.5,158.1,36.5,158,36.6"/>
					<path class="st6" d="M158.3,36.5l2.1-1.2c0.1,0,0.2,0,0.2,0l-2.1,1.2C158.5,36.4,158.4,36.4,158.3,36.5"/>
					<path class="st6" d="M158.6,36.4l2.1-1.2c0.1,0,0.1,0,0.2,0l-2.1,1.2C158.7,36.4,158.7,36.4,158.6,36.4"/>
					<path class="st6" d="M158.8,36.4l2.1-1.2c0.1,0,0.1,0,0.2,0l-2.1,1.2C158.9,36.5,158.9,36.5,158.8,36.4"/>
					<path class="st6" d="M159,36.5l2.1-1.2c0.1,0,0.1,0,0.2,0.1l-2.1,1.2C159.1,36.5,159,36.5,159,36.5"/>
					<path class="st6" d="M159.2,36.5l2.1-1.2c0.1,0,0.1,0,0.2,0.1l-2.1,1.2C159.3,36.6,159.2,36.6,159.2,36.5"/>
					<path class="st6" d="M159.4,36.6l2.1-1.2c0.1,0,0.1,0.1,0.2,0.1l-2.1,1.2C159.5,36.7,159.4,36.6,159.4,36.6"/>
					<path class="st6" d="M159.5,36.7l2.1-1.2c0,0,0,0,0,0L159.5,36.7C159.6,36.7,159.6,36.7,159.5,36.7"/>
				</g>
			</g>
			<g class="st9">
				<defs>
					<path id="SVGID_27_" class="st9" d="M163.3,40.8l-2.1,1.2c0.4-0.2,0.6-0.7,0.7-1.4c0-1.4-1-3.1-2.2-3.8l2.1-1.2
						c1.2,0.7,2.2,2.4,2.2,3.8C163.9,40.1,163.7,40.5,163.3,40.8z"/>
				</defs>
				<clipPath id="SVGID_28_">
					<use xlink:href="#SVGID_27_"  style="overflow:visible;"/>
				</clipPath>
				<g class="st23">
					<path class="st6" d="M159.6,36.7l2.1-1.2c0,0,0.1,0.1,0.1,0.1l-2.1,1.2C159.7,36.8,159.6,36.8,159.6,36.7"/>
					<path class="st6" d="M159.7,36.8l2.1-1.2c0.1,0,0.1,0.1,0.2,0.1l-2.1,1.2C159.9,36.9,159.8,36.9,159.7,36.8"/>
					<path class="st6" d="M159.9,37l2.1-1.2c0.1,0.1,0.1,0.1,0.2,0.2l-2.1,1.2C160.1,37.1,160,37,159.9,37"/>
					<path class="st6" d="M160.1,37.1l2.1-1.2c0.1,0.1,0.2,0.2,0.3,0.2l-2.1,1.2C160.3,37.3,160.2,37.2,160.1,37.1"/>
					<path class="st6" d="M160.4,37.4l2.1-1.2c0.1,0.1,0.3,0.3,0.4,0.5l-2.1,1.2C160.7,37.7,160.5,37.5,160.4,37.4"/>
					<path class="st6" d="M160.8,37.9l2.1-1.2c0.1,0.2,0.3,0.4,0.4,0.6l-2.1,1.2C161.1,38.2,160.9,38,160.8,37.9"/>
					<path class="st6" d="M161.2,38.4l2.1-1.2c0.1,0.2,0.2,0.4,0.3,0.6l-2.1,1.2C161.4,38.8,161.3,38.6,161.2,38.4"/>
					<path class="st6" d="M161.5,39l2.1-1.2c0,0.1,0.1,0.2,0.1,0.3l-2.1,1.2C161.5,39.2,161.5,39.1,161.5,39"/>
					<path class="st6" d="M161.6,39.4l2.1-1.2c0,0.1,0.1,0.2,0.1,0.3l-2.1,1.2C161.6,39.5,161.6,39.4,161.6,39.4"/>
					<path class="st6" d="M161.7,39.6l2.1-1.2c0,0.1,0,0.2,0.1,0.3l-2.1,1.2C161.7,39.8,161.7,39.7,161.7,39.6"/>
					<path class="st6" d="M161.7,39.9l2.1-1.2c0,0.1,0,0.2,0,0.2l-2.1,1.2C161.8,40,161.7,40,161.7,39.9"/>
					<path class="st6" d="M161.8,40.1l2.1-1.2c0,0.1,0,0.1,0,0.2l-2.1,1.2C161.8,40.3,161.8,40.2,161.8,40.1"/>
					<path class="st6" d="M161.8,40.3l2.1-1.2c0,0.1,0,0.1,0,0.2l-2.1,1.2C161.8,40.5,161.8,40.4,161.8,40.3"/>
					<path class="st6" d="M161.8,40.6l2.1-1.2c0,0,0,0,0,0c0,0.1,0,0.1,0,0.2l-2.1,1.2C161.8,40.7,161.8,40.7,161.8,40.6
						C161.8,40.6,161.8,40.6,161.8,40.6"/>
					<path class="st6" d="M161.8,40.8l2.1-1.2c0,0.1,0,0.1,0,0.2l-2.1,1.2C161.8,40.9,161.8,40.9,161.8,40.8"/>
					<path class="st6" d="M161.8,41l2.1-1.2c0,0.1,0,0.2-0.1,0.2l-2.1,1.2C161.7,41.2,161.8,41.1,161.8,41"/>
					<path class="st6" d="M161.7,41.2l2.1-1.2c0,0.1-0.1,0.2-0.1,0.2l-2.1,1.2C161.7,41.4,161.7,41.3,161.7,41.2"/>
					<path class="st6" d="M161.6,41.5l2.1-1.2c-0.1,0.2-0.3,0.4-0.5,0.5l-2.1,1.2C161.4,41.9,161.5,41.7,161.6,41.5"/>
				</g>
			</g>
			<g class="st9">
				<defs>
					<path id="SVGID_29_" class="st9" d="M124.3,0.2l2.1-1.2c3.4-2,8.1-1.7,13.3,1.3l-2.1,1.2C132.4-1.5,127.7-1.8,124.3,0.2z"/>
				</defs>
				<clipPath id="SVGID_30_">
					<use xlink:href="#SVGID_29_"  style="overflow:visible;"/>
				</clipPath>
				<g class="st24">
					<path class="st6" d="M124.3,0.2l2.1-1.2c0.9-0.5,1.8-0.9,2.9-1.1l-2.1,1.2C126.1-0.7,125.1-0.3,124.3,0.2"/>
					<path class="st6" d="M127.2-0.9l2.1-1.2c0.7-0.1,1.4-0.2,2.1-0.2L129.2-1C128.5-1,127.8-1,127.2-0.9"/>
					<path class="st6" d="M129.2-1l2.1-1.2c0.6,0,1.1,0,1.7,0.1L131-0.9C130.4-1,129.8-1,129.2-1"/>
					<path class="st6" d="M131-0.9l2.1-1.2c0.5,0.1,1.1,0.2,1.6,0.3l-2.1,1.2C132-0.7,131.5-0.8,131-0.9"/>
					<path class="st6" d="M132.6-0.6l2.1-1.2c0.5,0.1,1,0.3,1.5,0.5l-2.1,1.2C133.6-0.3,133.1-0.5,132.6-0.6"/>
					<path class="st6" d="M134.1-0.1l2.1-1.2c0.5,0.2,1,0.4,1.5,0.6l-2.1,1.2C135.1,0.3,134.6,0.1,134.1-0.1"/>
					<path class="st6" d="M135.7,0.5l2.1-1.2c0.5,0.2,1,0.5,1.6,0.8l-2.1,1.2C136.7,1,136.2,0.7,135.7,0.5"/>
					<path class="st6" d="M137.2,1.3l2.1-1.2c0.1,0.1,0.2,0.1,0.4,0.2l-2.1,1.2C137.5,1.4,137.3,1.4,137.2,1.3"/>
				</g>
			</g>
			<g>
				<polygon class="st6" points="167,46.9 169.1,45.7 169.1,60.8 166.9,62 				"/>
			</g>
			<g>
				<polygon class="st6" points="143.6,21.5 145.7,20.3 158.8,27.8 156.7,29.1 				"/>
			</g>
			<g class="st9">
				<defs>
					<path id="SVGID_31_" class="st9" d="M156.7,29.1l2.1-1.2c5.7,3.3,10.3,11.3,10.3,17.9l-2.1,1.2C167,40.4,162.4,32.4,156.7,29.1
						z"/>
				</defs>
				<clipPath id="SVGID_32_">
					<use xlink:href="#SVGID_31_"  style="overflow:visible;"/>
				</clipPath>
				<g class="st25">
					<path class="st6" d="M156.7,29.1l2.1-1.2c0.2,0.1,0.5,0.3,0.7,0.4l-2.1,1.2C157.1,29.3,156.9,29.2,156.7,29.1"/>
					<path class="st6" d="M157.3,29.5l2.1-1.2c0.3,0.2,0.6,0.4,0.9,0.6l-2.1,1.2C158,29.9,157.7,29.7,157.3,29.5"/>
					<path class="st6" d="M158.3,30.1l2.1-1.2c0.3,0.3,0.7,0.5,1,0.8l-2.1,1.2C158.9,30.7,158.6,30.4,158.3,30.1"/>
					<path class="st6" d="M159.3,31l2.1-1.2c0.4,0.4,0.8,0.7,1.2,1.1l-2.1,1.2C160.1,31.7,159.7,31.3,159.3,31"/>
					<path class="st6" d="M160.5,32.1l2.1-1.2c0.6,0.7,1.3,1.4,1.8,2.2l-2.1,1.2C161.7,33.5,161.1,32.8,160.5,32.1"/>
					<path class="st6" d="M162.3,34.3l2.1-1.2c0.7,0.9,1.3,1.8,1.8,2.8l-2.1,1.2C163.6,36,163,35.1,162.3,34.3"/>
					<path class="st6" d="M164.1,37l2.1-1.2c0.5,0.9,0.9,1.7,1.3,2.6l-2.1,1.2C165,38.7,164.6,37.9,164.1,37"/>
					<path class="st6" d="M165.4,39.6l2.1-1.2c0.2,0.5,0.4,1.1,0.6,1.6l-2.1,1.2C165.8,40.7,165.6,40.2,165.4,39.6"/>
					<path class="st6" d="M166,41.2l2.1-1.2c0.1,0.4,0.3,0.9,0.4,1.3l-2.1,1.2C166.3,42.1,166.1,41.7,166,41.2"/>
					<path class="st6" d="M166.4,42.6l2.1-1.2c0.1,0.4,0.2,0.8,0.3,1.2l-2.1,1.2C166.6,43.4,166.5,43,166.4,42.6"/>
					<path class="st6" d="M166.7,43.7l2.1-1.2c0.1,0.4,0.1,0.7,0.2,1.1l-2.1,1.2C166.8,44.5,166.7,44.1,166.7,43.7"/>
					<path class="st6" d="M166.8,44.8l2.1-1.2c0,0.3,0.1,0.7,0.1,1l-2.1,1.2C166.9,45.5,166.9,45.2,166.8,44.8"/>
					<path class="st6" d="M167,45.9l2.1-1.2c0,0.3,0,0.7,0,1l-2.1,1.2C167,46.5,167,46.2,167,45.9"/>
					<path class="st6" d="M167,46.9l2.1-1.2c0,0,0,0,0,0.1L167,46.9C167,46.9,167,46.9,167,46.9"/>
				</g>
			</g>
			<g>
				<path class="st6" d="M162.7,16c10.3,6,18.7,20.5,18.7,32.3l-0.1,28.9c0,11.9-8.5,16.7-18.8,10.7l-25.1-14.5
					c-10.3-6-18.7-20.5-18.7-32.3l0.1-28.9c0-11.9,8.5-16.7,18.8-10.7L162.7,16z M178.7,75.7l0.1-28.9c0-10.2-7.2-22.7-16.1-27.8
					L137.6,4.5c-8.9-5.1-16.1-1-16.2,9.2l-0.1,28.9c0,10.2,7.2,22.7,16.1,27.8l25.1,14.5C171.4,90.1,178.7,85.9,178.7,75.7"/>
			</g>
			<g>
				
					<ellipse transform="matrix(0.8646 -0.5024 0.5024 0.8646 1.8617 85.4983)" class="st6" cx="159.6" cy="39.3" rx="1.8" ry="3.1"/>
			</g>
			<g>
				<path class="st6" d="M156.7,29.1c5.7,3.3,10.3,11.3,10.3,17.9l0,15.1c0,6.6-4.7,9.2-10.4,5.9l-13.1-7.6
					c-5.7-3.3-10.3-11.3-10.3-17.9l0-15.1c0-6.6,4.7-9.2,10.4-5.9L156.7,29.1z M164.4,60.6l0-15.1c0-5-3.5-11-7.8-13.5l-13.1-7.6
					c-4.3-2.5-7.8-0.5-7.9,4.5l0,15.1c0,5,3.5,11,7.8,13.5l13.1,7.6C160.9,67.5,164.4,65.5,164.4,60.6"/>
			</g>
			<g>
				<path class="st6" d="M150.1,34.9c-4.7-2.7-8.6-0.5-8.6,4.9c0,5.4,3.8,12.1,8.5,14.8c4.7,2.7,8.6,0.5,8.6-4.9
					C158.6,44.2,154.8,37.6,150.1,34.9z M150,51.6c-3.3-1.9-6-6.5-5.9-10.3c0-3.8,2.7-5.3,6-3.4c3.3,1.9,6,6.5,5.9,10.3
					C156,51.9,153.3,53.5,150,51.6"/>
			</g>
			<g class="st9">
				<defs>
					<path id="SVGID_33_" class="st9" d="M177.9,88l-2.1,1.2c3.4-2,5.5-6.1,5.5-12l2.1-1.2C183.4,81.9,181.3,86,177.9,88z"/>
				</defs>
				<clipPath id="SVGID_34_">
					<use xlink:href="#SVGID_33_"  style="overflow:visible;"/>
				</clipPath>
				<g class="st26">
					<path class="st6" d="M181.3,77.2l2.1-1.2c0,0.6,0,1.1-0.1,1.7l-2.1,1.2C181.3,78.4,181.3,77.8,181.3,77.2"/>
					<path class="st6" d="M181.2,78.9l2.1-1.2c0,0.6-0.1,1.2-0.2,1.8l-2.1,1.2C181.1,80.2,181.2,79.5,181.2,78.9"/>
					<path class="st6" d="M181,80.7l2.1-1.2c-0.1,0.7-0.3,1.3-0.4,1.9l-2.1,1.2C180.8,82,180.9,81.4,181,80.7"/>
					<path class="st6" d="M180.6,82.6l2.1-1.2c-0.2,0.7-0.5,1.4-0.8,2.1l-2.1,1.2C180.1,84.1,180.4,83.4,180.6,82.6"/>
					<path class="st6" d="M179.8,84.7l2.1-1.2c-0.9,2-2.3,3.5-4,4.5l-2.1,1.2C177.5,88.2,178.9,86.7,179.8,84.7"/>
				</g>
			</g>
			<g>
				<polygon class="st6" points="181.4,48.3 183.5,47.1 183.4,76 181.3,77.2 				"/>
			</g>
			<g>
				<polygon class="st6" points="137.6,1.5 139.7,0.3 164.8,14.8 162.7,16 				"/>
			</g>
			<g class="st9">
				<defs>
					<path id="SVGID_35_" class="st9" d="M162.7,16l2.1-1.2c10.3,6,18.7,20.5,18.7,32.3l-2.1,1.2C181.4,36.5,173,22,162.7,16z"/>
				</defs>
				<clipPath id="SVGID_36_">
					<use xlink:href="#SVGID_35_"  style="overflow:visible;"/>
				</clipPath>
				<g class="st27">
					<path class="st6" d="M162.7,16l2.1-1.2c0.4,0.2,0.8,0.5,1.2,0.8l-2.1,1.2C163.5,16.5,163.1,16.3,162.7,16"/>
					<path class="st6" d="M164,16.8l2.1-1.2c0.6,0.4,1.1,0.8,1.7,1.2l-2.1,1.2C165.1,17.5,164.5,17.2,164,16.8"/>
					<path class="st6" d="M165.6,18l2.1-1.2c0.6,0.5,1.2,1,1.8,1.5l-2.1,1.2C166.8,18.9,166.2,18.4,165.6,18"/>
					<path class="st6" d="M167.4,19.4l2.1-1.2c0.7,0.6,1.5,1.3,2.1,2l-2.1,1.2C168.9,20.8,168.2,20.1,167.4,19.4"/>
					<path class="st6" d="M169.6,21.5l2.1-1.2c1.2,1.2,2.3,2.5,3.3,3.9l-2.1,1.2C171.9,24,170.8,22.7,169.6,21.5"/>
					<path class="st6" d="M172.9,25.4l2.1-1.2c1.2,1.6,2.3,3.2,3.2,5l-2.1,1.2C175.2,28.6,174.1,27,172.9,25.4"/>
					<path class="st6" d="M176.2,30.4l2.1-1.2c0.9,1.5,1.7,3.1,2.3,4.8l-2.1,1.2C177.8,33.5,177,31.9,176.2,30.4"/>
					<path class="st6" d="M178.5,35.1l2.1-1.2c0.4,1,0.8,1.9,1.1,2.9l-2.1,1.2C179.3,37.1,178.9,36.1,178.5,35.1"/>
					<path class="st6" d="M179.6,38l2.1-1.2c0.3,0.8,0.5,1.6,0.7,2.4l-2.1,1.2C180.1,39.6,179.8,38.8,179.6,38"/>
					<path class="st6" d="M180.3,40.4l2.1-1.2c0.2,0.7,0.4,1.4,0.5,2.1l-2.1,1.2C180.6,41.8,180.5,41.1,180.3,40.4"/>
					<path class="st6" d="M180.8,42.5l2.1-1.2c0.1,0.7,0.2,1.3,0.3,2l-2.1,1.2C181,43.9,180.9,43.2,180.8,42.5"/>
					<path class="st6" d="M181.1,44.5l2.1-1.2c0.1,0.6,0.2,1.3,0.2,1.9l-2.1,1.2C181.3,45.8,181.2,45.1,181.1,44.5"/>
					<path class="st6" d="M181.3,46.4l2.1-1.2c0,0.6,0.1,1.2,0.1,1.8l-2.1,1.2C181.4,47.6,181.4,47,181.3,46.4"/>
					<path class="st6" d="M181.4,48.2l2.1-1.2c0,0,0,0.1,0,0.1l-2.1,1.2C181.4,48.3,181.4,48.3,181.4,48.2"/>
				</g>
			</g>
		</g>
	</g>
</g>
<g>
	<path class="st1" d="M235.5,303.1L235.5,303.1v-11.3l-25.3,0l-8.7-5.1c-2-1.2-5.5-1-7.8,0.3l-8.2,4.7l-25.3,0v11.6
		c-0.1,0.8,0.4,1.5,1.3,2.1l32.7,18.9c2,1.2,5.5,1,7.8-0.3l31.6-18.2C234.9,305,235.6,304,235.5,303.1z"/>
	<path class="st1" d="M197.8,285.9c-1.5,0-3,0.4-4.2,1.1l-8.2,4.7l-25.3,0v11.6c-0.1,0.8,0.4,1.5,1.3,2.1l32.7,18.9
		c1,0.6,2.3,0.8,3.6,0.8V285.9z"/>
	<path class="st2" d="M163,291.7l-2.9,0v11.6c-0.1,0.8,0.4,1.5,1.3,2.1l1.5,0.9V291.7z"/>
	<path class="st2" d="M194.7,324.6c1.7,0.7,4.2,0.7,6.3-0.1v-13.2h-6.3V324.6z"/>
	<path class="st0" d="M194.2,312.8l-32.7-18.9c-2-1.2-1.8-3.2,0.6-4.5l31.6-18.2c2.3-1.3,5.8-1.5,7.8-0.3l32.7,18.9
		c2,1.2,1.8,3.2-0.6,4.5L202,312.5C199.7,313.8,196.2,313.9,194.2,312.8z"/>
	<path class="st2" d="M194.7,309.4l-27.4-15.8c-1.7-1-1.5-2.7,0.5-3.8l26.5-15.3c1.9-1.1,4.9-1.2,6.6-0.3l27.4,15.8
		c1.7,1,1.5,2.7-0.5,3.8l-26.5,15.3C199.4,310.2,196.4,310.3,194.7,309.4z"/>
	<g>
		<path class="st0" d="M223.5,306.1c0,0.8-0.6,1.9-1.3,2.3c-0.7,0.4-1.3,0.1-1.3-0.8c0-0.8,0.6-1.9,1.3-2.3
			C222.9,304.9,223.5,305.2,223.5,306.1z"/>
		<path class="st0" d="M227.7,303.6c0,0.8-0.6,1.9-1.3,2.3c-0.7,0.4-1.3,0.1-1.3-0.8c0-0.8,0.6-1.9,1.3-2.3
			C227.1,302.4,227.7,302.8,227.7,303.6z"/>
		<path class="st0" d="M232,301.1c0,0.8-0.6,1.9-1.3,2.3c-0.7,0.4-1.3,0.1-1.3-0.8c0-0.8,0.6-1.9,1.3-2.3
			C231.4,300,232,300.3,232,301.1z"/>
	</g>
</g>
<g>
	<path class="st1" d="M235.5,285L235.5,285v-11.3l-25.3,0l-8.7-5.1c-2-1.2-5.5-1-7.8,0.3l-8.2,4.7l-25.3,0v11.6
		c-0.1,0.8,0.4,1.5,1.3,2.1l32.7,18.9c2,1.2,5.5,1,7.8-0.3l31.6-18.2C234.9,287,235.6,286,235.5,285z"/>
	<path class="st1" d="M197.8,267.9c-1.5,0-3,0.4-4.2,1.1l-8.2,4.7l-25.3,0v11.6c-0.1,0.8,0.4,1.5,1.3,2.1l32.7,18.9
		c1,0.6,2.3,0.8,3.6,0.8V267.9z"/>
	<path class="st2" d="M163,273.7l-2.9,0v11.6c-0.1,0.8,0.4,1.5,1.3,2.1l1.5,0.9V273.7z"/>
	<path class="st2" d="M194.7,306.6c1.7,0.7,4.2,0.7,6.3-0.1v-13.2h-6.3V306.6z"/>
	<path class="st0" d="M194.2,294.7l-32.7-18.9c-2-1.2-1.8-3.2,0.6-4.5l31.6-18.2c2.3-1.3,5.8-1.5,7.8-0.3l32.7,18.9
		c2,1.2,1.8,3.2-0.6,4.5L202,294.4C199.7,295.8,196.2,295.9,194.2,294.7z"/>
	<path class="st2" d="M194.7,291.3l-27.4-15.8c-1.7-1-1.5-2.7,0.5-3.8l26.5-15.3c1.9-1.1,4.9-1.2,6.6-0.3l27.4,15.8
		c1.7,1,1.5,2.7-0.5,3.8l-26.5,15.3C199.4,292.2,196.4,292.3,194.7,291.3z"/>
	<g>
		<path class="st0" d="M223.5,288c0,0.8-0.6,1.9-1.3,2.3c-0.7,0.4-1.3,0.1-1.3-0.8c0-0.8,0.6-1.9,1.3-2.3
			C222.9,286.8,223.5,287.2,223.5,288z"/>
		<path class="st0" d="M227.7,285.6c0,0.8-0.6,1.9-1.3,2.3c-0.7,0.4-1.3,0.1-1.3-0.8c0-0.8,0.6-1.9,1.3-2.3
			C227.1,284.4,227.7,284.7,227.7,285.6z"/>
		<path class="st0" d="M232,283.1c0,0.8-0.6,1.9-1.3,2.3c-0.7,0.4-1.3,0.1-1.3-0.8c0-0.8,0.6-1.9,1.3-2.3
			C231.4,281.9,232,282.3,232,283.1z"/>
	</g>
</g>
<g>
	<path class="st1" d="M235.5,267L235.5,267v-11.3l-25.3,0l-8.7-5.1c-2-1.2-5.5-1-7.8,0.3l-8.2,4.7l-25.3,0v11.6
		c-0.1,0.8,0.4,1.5,1.3,2.1l32.7,18.9c2,1.2,5.5,1,7.8-0.3l31.6-18.2C234.9,268.9,235.6,267.9,235.5,267z"/>
	<path class="st1" d="M197.8,249.9c-1.5,0-3,0.4-4.2,1.1l-8.2,4.7l-25.3,0v11.6c-0.1,0.8,0.4,1.5,1.3,2.1l32.7,18.9
		c1,0.6,2.3,0.8,3.6,0.8V249.9z"/>
	<path class="st2" d="M163,255.7l-2.9,0v11.6c-0.1,0.8,0.4,1.5,1.3,2.1l1.5,0.9V255.7z"/>
	<path class="st2" d="M194.7,288.5c1.7,0.7,4.2,0.7,6.3-0.1v-13.2h-6.3V288.5z"/>
	<path class="st0" d="M194.2,276.7l-32.7-18.9c-2-1.2-1.8-3.2,0.6-4.5l31.6-18.2c2.3-1.3,5.8-1.5,7.8-0.3l32.7,18.9
		c2,1.2,1.8,3.2-0.6,4.5L202,276.4C199.7,277.7,196.2,277.9,194.2,276.7z"/>
	<path class="st3" d="M233.6,255.9L202,274.1c-2.3,1.3-5.8,1.5-7.8,0.3l-32.7-18.9c-0.4-0.3-0.8-0.6-1-0.9c-0.7,1.1-0.4,2.3,1,3.1
		l32.7,18.9c2,1.2,5.5,1,7.8-0.3l31.6-18.2c1.8-1,2.3-2.5,1.6-3.6C234.8,255,234.3,255.5,233.6,255.9z"/>
	<g>
		<path class="st0" d="M223.5,270c0,0.8-0.6,1.9-1.3,2.3s-1.3,0.1-1.3-0.8c0-0.8,0.6-1.9,1.3-2.3C222.9,268.8,223.5,269.1,223.5,270
			z"/>
		<path class="st0" d="M227.7,267.5c0,0.8-0.6,1.9-1.3,2.3c-0.7,0.4-1.3,0.1-1.3-0.8c0-0.8,0.6-1.9,1.3-2.3
			C227.1,266.3,227.7,266.7,227.7,267.5z"/>
		<path class="st0" d="M232,265.1c0,0.8-0.6,1.9-1.3,2.3c-0.7,0.4-1.3,0.1-1.3-0.8c0-0.8,0.6-1.9,1.3-2.3
			C231.4,263.9,232,264.2,232,265.1z"/>
	</g>
	<g>
		<path class="st2" d="M196.1,265l-15.3-8.8c-0.9-0.5-0.8-1.5,0.3-2.1l14.8-8.5c1.1-0.6,2.7-0.7,3.7-0.2l15.3,8.8
			c0.9,0.5,0.8,1.5-0.3,2.1l-14.8,8.5C198.7,265.5,197,265.5,196.1,265z"/>
		<path class="st0" d="M197.6,257.6l-2.1-1.2c-0.1-0.1-0.1-0.2,0-0.3l2-1.2c0.2-0.1,0.4-0.1,0.5,0l2.1,1.2c0.1,0.1,0.1,0.2,0,0.3
			l-2,1.2C197.9,257.6,197.7,257.7,197.6,257.6z"/>
		<path class="st2" d="M180.8,256.1L180.8,256.1c0.1,0,0.2-0.1,0.3-0.1l14.8-8.5c1.1-0.6,2.7-0.7,3.7-0.2l15.3,8.8
			c0.9-0.6,0.9-1.5,0-2l-15.3-8.8c-0.9-0.5-2.6-0.5-3.7,0.2L181,254C180,254.7,179.8,255.6,180.8,256.1z"/>
	</g>
</g>
<g>
	<path class="st0" d="M192,280c0,0.6-0.4,0.8-0.9,0.5c-0.5-0.3-0.9-1-0.9-1.5s0.4-0.8,0.9-0.5C191.6,278.7,192,279.4,192,280z"/>
	<path class="st0" d="M189.3,278.4c0,0.6-0.4,0.8-0.9,0.5c-0.5-0.3-0.9-1-0.9-1.5c0-0.6,0.4-0.8,0.9-0.5
		C188.9,277.2,189.3,277.8,189.3,278.4z"/>
	<path class="st0" d="M192,283.3c0,0.6-0.4,0.8-0.9,0.5c-0.5-0.3-0.9-1-0.9-1.5s0.4-0.8,0.9-0.5C191.6,282.1,192,282.8,192,283.3z"
		/>
	<path class="st0" d="M189.3,281.7c0,0.6-0.4,0.8-0.9,0.5c-0.5-0.3-0.9-1-0.9-1.5s0.4-0.8,0.9-0.5
		C188.9,280.5,189.3,281.2,189.3,281.7z"/>
</g>
<g>
	<path class="st0" d="M192,297.9c0,0.6-0.4,0.8-0.9,0.5c-0.5-0.3-0.9-1-0.9-1.5c0-0.6,0.4-0.8,0.9-0.5
		C191.6,296.7,192,297.4,192,297.9z"/>
	<path class="st0" d="M189.3,296.4c0,0.6-0.4,0.8-0.9,0.5c-0.5-0.3-0.9-1-0.9-1.5c0-0.6,0.4-0.8,0.9-0.5
		C188.9,295.1,189.3,295.8,189.3,296.4z"/>
	<path class="st0" d="M192,301.3c0,0.6-0.4,0.8-0.9,0.5c-0.5-0.3-0.9-1-0.9-1.5c0-0.6,0.4-0.8,0.9-0.5
		C191.6,300,192,300.7,192,301.3z"/>
	<path class="st0" d="M189.3,299.7c0,0.6-0.4,0.8-0.9,0.5c-0.5-0.3-0.9-1-0.9-1.5c0-0.6,0.4-0.8,0.9-0.5
		C188.9,298.4,189.3,299.1,189.3,299.7z"/>
</g>
<g>
	<path class="st0" d="M192,315.9c0,0.6-0.4,0.8-0.9,0.5c-0.5-0.3-0.9-1-0.9-1.5s0.4-0.8,0.9-0.5C191.6,314.6,192,315.3,192,315.9z"
		/>
	<path class="st0" d="M189.3,314.3c0,0.6-0.4,0.8-0.9,0.5c-0.5-0.3-0.9-1-0.9-1.5c0-0.6,0.4-0.8,0.9-0.5
		C188.9,313.1,189.3,313.7,189.3,314.3z"/>
	<path class="st0" d="M192,319.2c0,0.6-0.4,0.8-0.9,0.5c-0.5-0.3-0.9-1-0.9-1.5s0.4-0.8,0.9-0.5C191.6,318,192,318.7,192,319.2z"/>
	<path class="st0" d="M189.3,317.6c0,0.6-0.4,0.8-0.9,0.5c-0.5-0.3-0.9-1-0.9-1.5c0-0.6,0.4-0.8,0.9-0.5
		C188.9,316.4,189.3,317.1,189.3,317.6z"/>
</g>
</svg>
